<svg id="Layer_2" data-name="Layer 2" xmlns="http://www.w3.org/2000/svg" viewBox="0 0 361.32 332.95"><defs><style>.cls-1{fill:#c200ea;}.cls-2{stroke:#000;stroke-miterlimit:10;}</style></defs><path class="cls-1" d="M385.48,130.24S353,162,291.46,144.45c0,0,6.94,58.05-32.53,89.07s-93.23,16.3-96.11,15-81.25-35.23-115.33-7.66c0,0-3.09.68-9.21-8a91.88,91.88,0,0,0-12.56-14.4s-7.43-5.81,11.52-13.86,34.14-18.52,83-5.31c0,0,69.6,26.46,90.33,20.6S241.85,200,241.85,200s16-18.42,12-66.1-10-95.58,29.67-128.6c0,0,13.87,11.52,22.66,23.51,0,0-27.76,34.28-20.13,76.31,0,0,43.28,18.65,71,3.48,0,0,7.59-5.23,8.58-5.13S387.44,125.92,385.48,130.24Z" transform="translate(-24.29 -5.34)"/><path class="cls-2" d="M-195.5-9.5" transform="translate(-24.29 -5.34)"/><path class="cls-1" d="M257.64,98.14S218,82.89,196.19,89.64s-48.05,17-57,35.2-21,46.06-18.92,74.43,13.85,49.73,3.42,81.81-16,27.47-16,27.47-6.28,2.36-1.83,7.86,16.79,21.88,16.79,21.88,7.07-.26,16-8.37,20.89-36,21.11-57.1S155.85,205,155.7,197s0-47.27,21.42-60.08,35.81-15.33,58.37-9.93,40.14,10.27,40.14,10.27Z" transform="translate(-24.29 -5.34)"/><path class="cls-1" d="M296.4,35.86l65.71,82.36s-8.22,11.2-15.18,10.46-12.3-7.33-12.3-7.33L283.72,60.67Z" transform="translate(-24.29 -5.34)"/><path class="cls-1" d="M208.17,119.06,260,180.84s-2.05,28.94-6,28.52-73.25-87.17-73.25-87.17Z" transform="translate(-24.29 -5.34)"/><polygon class="cls-1" points="206.3 215.63 131.28 126.26 123.52 161.64 128.7 160.18 178.4 222.74 198.4 223.85 206.3 215.63"/><polygon class="cls-1" points="53.25 217.57 107.3 286.63 98.45 303.79 91.38 304.05 29.23 226.09 53.25 217.57"/></svg>