<svg id="Layer_1" data-name="Layer 1" xmlns="http://www.w3.org/2000/svg" viewBox="0 0 877.96 95.34"><defs><style>.cls-1{fill:#ab7cc1;}</style></defs><title>maslowcreate</title><path class="cls-1" d="M22.35,29.31H56.64l13.23,56.1L83,29.31h34.27v92.2H95.92V51.2L79.46,121.51H60.13L43.7,51.2v70.31H22.35Z" transform="translate(-22.35 -27.74)"/><path class="cls-1" d="M149.68,76.35l-22.19-2.58c.84-4.27,1.86-7.64,3.45-10.09a20.77,20.77,0,0,1,6.88-6.38,27,27,0,0,1,8.87-3,65.72,65.72,0,0,1,12.2-1.07,88.87,88.87,0,0,1,16.92,1.29,21,21,0,0,1,10.65,5.38,19,19,0,0,1,4.72,8,31.66,31.66,0,0,1,1.94,9.91v29.49a39.24,39.24,0,0,0,.54,7.39,35.29,35.29,0,0,0,2.39,6.83H173.86a25.18,25.18,0,0,1-1.73-3.93,31.73,31.73,0,0,1-.81-4.25,30.33,30.33,0,0,1-9.15,6.92A35.31,35.31,0,0,1,147.72,123q-10.93,0-16.61-5.54a18.14,18.14,0,0,1-5.46-13.65c0-5.07,1.16-9.24,3.88-12.51s7.75-5.7,15.08-7.3c8.79-1.92,11.7-2.57,14.39-3a49.07,49.07,0,0,1,11-1c0-3.14-.6-8.43-1.78-9.69s-3.29-1.88-6.28-1.88q-5.76,0-8.63,2Q151.06,72,149.68,76.35ZM170,90c-4,.19-9.52.61-13,2-5,2-4.73,2.66-6,4a10,10,0,0,0-2.07,6,6.62,6.62,0,0,0,1.93,4.93,7.69,7.69,0,0,0,5.67,1.92,13.63,13.63,0,0,0,7.28-2.07A27.9,27.9,0,0,0,169,102c1-1,1-4.92,1-8.1Z" transform="translate(-22.35 -27.74)"/><path class="cls-1" d="M201.19,103l23.25-2.39a12.65,12.65,0,0,0,4,6.48,11.22,11.22,0,0,0,6.91,1.95q4.73,0,7.31-2.2a5,5,0,0,0,2-4.08,4.71,4.71,0,0,0-2.65-4.27Q240.15,97.38,232,95.8q-12.21-2.31-17-4.3a18.21,18.21,0,0,1-8-6.69,18.43,18.43,0,0,1-3.25-10.74,18.65,18.65,0,0,1,3.51-11.37A20.86,20.86,0,0,1,217,55.57q6.16-2.35,16.52-2.36,10.94,0,16.15,1.82a20.9,20.9,0,0,1,8.69,5.66,30.35,30.35,0,0,1,5.79,10.38l-22.22,2.39A8.42,8.42,0,0,0,239,68.74a11,11,0,0,0-6.68-2q-4,0-5.78,1.54A4.72,4.72,0,0,0,224.73,72,4,4,0,0,0,227,75.71q2.29,1.26,10,2.26,11.69,1.44,17.39,4a19.56,19.56,0,0,1,8.72,7.35,19.28,19.28,0,0,1,3,10.49,21.78,21.78,0,0,1-13.27,20Q246,123,234.17,123q-16.74,0-23.86-5.22T201.19,103Z" transform="translate(-22.35 -27.74)"/><path class="cls-1" d="M275.32,29.31h23.49v92.2H275.32Z" transform="translate(-22.35 -27.74)"/><path class="cls-1" d="M308.07,88.3q0-15.28,9.44-25.19t25.5-9.9q18.38,0,27.75,11.63,7.55,9.38,7.54,23.08,0,15.42-9.35,25.25T343.07,123q-14.73,0-23.83-8.18Q308.07,104.72,308.07,88.3Zm23.49-.06q0,8.92,3.31,13.2a10.27,10.27,0,0,0,16.63.07q3.25-4.22,3.26-13.52,0-8.68-3.28-12.93a9.92,9.92,0,0,0-8.12-4.24,10.24,10.24,0,0,0-8.46,4.31Q331.56,79.44,331.56,88.24Z" transform="translate(-22.35 -27.74)"/><path class="cls-1" d="M377.77,54.72h22.66l9.8,42.05,12.4-42h21.18l12.92,42.15,9.86-42.15h22.52l-22.52,66.79H445.74L433.35,81.32l-12,40.19H400.44Z" transform="translate(-22.35 -27.74)"/><path class="cls-1" d="M550.81,83.77l22.85,7.55a48.12,48.12,0,0,1-7.25,17.55,32.15,32.15,0,0,1-12.29,10.62q-7.33,3.58-18.68,3.59-13.76,0-22.48-4.37t-15.05-15.36q-6.35-11-6.34-28.16,0-22.87,11.14-35.16t31.52-12.29q15.94,0,25.07,7t13.56,21.64l-23,5.59a22.55,22.55,0,0,0-2.53-6.16,15.43,15.43,0,0,0-5.35-5,14.42,14.42,0,0,0-7.09-1.76q-8.86,0-13.58,7.79-3.57,5.77-3.57,18.15,0,15.33,4.26,21t12,5.69q7.48,0,11.32-4.59T550.81,83.77Z" transform="translate(-22.35 -27.74)"/><path class="cls-1" d="M582.17,54.72h21.94V65.66q3.17-7.11,6.53-9.78A13,13,0,0,1,619,53.21q5.17,0,11.34,3.52L623.05,75a17.18,17.18,0,0,0-6.57-1.89,7.94,7.94,0,0,0-7.13,4.15q-3.63,5.85-3.63,21.89v22.39H582.17Z" transform="translate(-22.35 -27.74)"/><path class="cls-1" d="M701.21,94.46h-47q.63,6.17,3,9.19a10.74,10.74,0,0,0,8.87,4.34,12.43,12.43,0,0,0,6.56-1.89,16,16,0,0,0,4.08-4.22l23.09,2.33q-5.29,10.07-12.78,14.44T665.64,123q-12.15,0-19.11-3.75A29.17,29.17,0,0,1,635,107.39a38.46,38.46,0,0,1-4.57-19.15q0-15.66,9.18-25.35T665,53.21q13.13,0,20.72,4.34a28.11,28.11,0,0,1,11.57,12.58q4,8.24,4,21.44ZM677.38,82.2q-.69-7.42-3.66-10.63a10.09,10.09,0,0,0-7.8-3.2A10.33,10.33,0,0,0,657,73.21q-2.13,3-2.7,9Z" transform="translate(-22.35 -27.74)"/><path class="cls-1" d="M811.21,29.31V54.72H824.1V73.46H811.21V97.12c0,2.85.24,4.73.74,5.65a4.19,4.19,0,0,0,4,2.13,23.78,23.78,0,0,0,7.26-1.63L825,120.94A70.26,70.26,0,0,1,808.73,123q-8.75,0-12.9-2.45a14.64,14.64,0,0,1-6.13-7.45q-2-5-2-16.17V73.46h-8.64V54.72h8.64V42.45Z" transform="translate(-22.35 -27.74)"/><path class="cls-1" d="M900.31,94.46h-47c.43,4.11,1.44,7.17,3.06,9.19a10.72,10.72,0,0,0,8.86,4.34,12.43,12.43,0,0,0,6.56-1.89,16,16,0,0,0,4.09-4.22L899,104.21q-5.29,10.07-12.77,14.44T864.73,123q-12.15,0-19.11-3.75a29.21,29.21,0,0,1-11.54-11.88,38.46,38.46,0,0,1-4.58-19.15q0-15.66,9.18-25.35T864,53.21q13.13,0,20.73,4.34a28.16,28.16,0,0,1,11.57,12.58q4,8.24,4,21.44ZM876.48,82.2q-.69-7.42-3.66-10.63a10.12,10.12,0,0,0-7.8-3.2,10.32,10.32,0,0,0-8.92,4.84q-2.13,3-2.71,9Z" transform="translate(-22.35 -27.74)"/><path class="cls-1" d="M730.68,74.35l-22.19-2.58c.84-4.27,1.86-7.64,3.45-10.09a20.77,20.77,0,0,1,6.88-6.38,27,27,0,0,1,8.87-3,65.72,65.72,0,0,1,12.2-1.07,88.87,88.87,0,0,1,16.92,1.29,21,21,0,0,1,10.65,5.38,19,19,0,0,1,4.72,8,31.66,31.66,0,0,1,1.94,9.91v29.49a39.24,39.24,0,0,0,.54,7.39,35.29,35.29,0,0,0,2.39,6.83H754.86a25.18,25.18,0,0,1-1.73-3.93,31.73,31.73,0,0,1-.81-4.25,30.33,30.33,0,0,1-9.15,6.92A35.31,35.31,0,0,1,728.72,121q-10.94,0-16.61-5.54a18.14,18.14,0,0,1-5.46-13.65c0-5.07,1.16-9.24,3.88-12.51s7.75-5.7,15.08-7.3c8.79-1.92,11.7-2.57,14.39-3a49.07,49.07,0,0,1,11-1c0-3.14-.6-8.43-1.78-9.69s-3.29-1.88-6.28-1.88q-5.76,0-8.63,2Q732.06,70,730.68,74.35ZM751,88c-4,.19-9.52.61-13,2-5,2-4.73,2.66-6,4a10,10,0,0,0-2.07,6,6.62,6.62,0,0,0,1.93,4.93,7.69,7.69,0,0,0,5.67,1.92,13.63,13.63,0,0,0,7.28-2.07A27.9,27.9,0,0,0,750,100c1-1,1-4.92,1-8.1Z" transform="translate(-22.35 -27.74)"/></svg>