<svg viewBox="-250 -250 500 500" width="500" height="500" xmlns="http://www.w3.org/2000/svg"><path d="M-135.36797085527124,112.07302856308058L-159.64428744476396,73.57810380780928L-142.64229517636628,100.84687797706773z" style="fill:rgb(21,60,149)"/><path d="M150.21779430566565,-91.55880368739989L168.02133137487633,-50.287827840147685L163.75609791359463,-62.05289054933176z" style="fill:rgb(241,178,151)"/><path d="M-41.00028427680547,-170.81436958961663L-7.8334183588368695,-175.81495320725583L-16.269324758375554,-174.75687639939497z" style="fill:rgb(109,251,150)"/><path d="M-99.80034239138176,143.11818555656293L-113.21410150817076,134.67075820410003L-87.31296115230069,151.4004521706016z" style="fill:rgb(59,21,149)"/><path d="M-147.2840411278758,-94.94446439617332L-144.2721725964203,-100.81338786381767L-159.27860374286155,-73.10154989064561z" style="fill:rgb(16,186,149)"/><path d="M135.8249925029484,110.90020344863822L109.24260599013841,138.00500856574513L121.19780083551761,127.06517679055818z" style="fill:rgb(214,38,154)"/><path d="M-91.28073085195284,-149.97912434592604L-112.6948702275327,-134.78466516792372L-118.93961654256822,-129.749710000568z" style="fill:rgb(52,227,152)"/><path d="M-172.69229761553817,-24.719073681120665L-172.78194783348886,-33.26434660231538L-175.2277392631327,-0.8381075749784662z" style="fill:rgb(2,135,151)"/><path d="M-99.80034239138176,143.11818555656293L-87.31296115230069,151.4004521706016L-74.83469213051627,159.26605982889023z" style="fill:rgb(59,21,149)"/><path d="M-147.2840411278758,-94.94446439617332L-159.27860374286155,-73.10154989064561L-163.4077043394044,-65.08898588326765z" style="fill:rgb(16,186,149)"/><path d="M97.69971432773544,-145.92128158465204L69.24371296084261,-161.82338749169054L74.82029904842939,-157.4725001231641z" style="fill:rgb(190,235,153)"/><path d="M37.38235679008964,-171.61671358487L30.279974717994897,-173.26588990445427L-1.1841601855691244,-175.80280420203076z" style="fill:rgb(140,251,154)"/><path d="M-47.8638351250654,168.62928846386768L-32.76142378099184,172.91537129036007L-57.26394806070079,164.21523950504223zM-47.8638351250654,168.62928846386768L-57.26394806070079,164.21523950504223L-74.83469213051627,159.26605982889023z" style="fill:rgb(88,8,152)"/><path d="M-170.72033704151636,42.747215704881796L-159.64428744476396,73.57810380780928L-152.6637916315421,84.31956614083865z" style="fill:rgb(12,82,158)"/><path d="M-172.69229761553817,-24.719073681120665L-175.2277392631327,-0.8381075749784662L-175.2022046229255,9.528366710136227z" style="fill:rgb(2,135,151)"/><path d="M175.03422548052552,13.182221693202942L175.03559232061545,-18.497517303985777L172.91644925616328,-3.443421746414971z" style="fill:rgb(251,124,155)"/><path d="M-36.7450716578322,-171.34405266720313L-1.1841601855691244,-175.80280420203076L-7.8334183588368695,-175.81495320725583z" style="fill:rgb(113,250,156)"/><path d="M6.536100657084393,175.66235348301404L23.2209001905612,174.4756252464475L7.59838671780325,172.80119352810738z" style="fill:rgb(131,3,156)"/><path d="M-41.00028427680547,-170.81436958961663L-36.7450716578322,-171.34405266720313L-7.8334183588368695,-175.81495320725583z" style="fill:rgb(109,251,150)"/><path d="M-135.36797085527124,112.07302856308058L-152.6637916315421,84.31956614083865L-159.64428744476396,73.57810380780928z" style="fill:rgb(21,60,149)"/><path d="M-172.69229761553817,-24.719073681120665L-163.4077043394044,-65.08898588326765L-172.78194783348886,-33.26434660231538z" style="fill:rgb(7,159,158)"/><path d="M-147.2840411278758,-94.94446439617332L-123.09065178595584,-125.25159088267232L-144.2721725964203,-100.81338786381767z" style="fill:rgb(31,205,157)"/><path d="M-99.80034239138176,143.11818555656293L-135.36797085527124,112.07302856308058L-113.21410150817076,134.67075820410003z" style="fill:rgb(43,37,160)"/><path d="M97.69971432773544,-145.92128158465204L74.82029904842939,-157.4725001231641L104.95897594434813,-140.4241878981819z" style="fill:rgb(190,235,153)"/><path d="M-91.28073085195284,-149.97912434592604L-118.93961654256822,-129.749710000568L-94.4060879710223,-147.44947763969287z" style="fill:rgb(52,227,152)"/><path d="M158.8446938902751,72.83659087839213L166.39218798073153,57.34321396595544L173.0683583597784,28.013829096452195z" style="fill:rgb(244,91,162)"/><path d="M-70.5168368139324,-161.27363864634546L-65.20210382275708,-159.71426556331184L-64.21306772126192,-163.88492856676748z" style="fill:rgb(80,241,160)"/><path d="M135.8249925029484,110.90020344863822L146.97911307247725,96.82549910920463L158.8446938902751,72.83659087839213z" style="fill:rgb(231,62,162)"/><path d="M175.03422548052552,13.182221693202942L172.91644925616328,-3.443421746414971L173.0683583597784,28.013829096452195z" style="fill:rgb(251,124,155)"/><path d="M-57.891580695615396,-166.22191749755666L-64.21306772126192,-163.88492856676748L-65.20210382275708,-159.71426556331184z" style="fill:rgb(82,242,160)"/><path d="M37.38235679008964,-171.61671358487L74.82029904842939,-157.4725001231641L69.24371296084261,-161.82338749169054z" style="fill:rgb(167,244,160)"/><path d="M-76.58186402577681,-158.47721463382652L-65.20210382275708,-159.71426556331184L-70.5168368139324,-161.27363864634546z" style="fill:rgb(78,240,160)"/><path d="M150.21779430566565,-91.55880368739989L154.02586030650156,-80.80801221358674L168.02133137487633,-50.287827840147685z" style="fill:rgb(241,178,151)"/><path d="M-96.40196452738579,-145.23213012555885L-118.93961654256822,-129.749710000568L-123.09065178595584,-125.25159088267232z" style="fill:rgb(50,224,158)"/><path d="M133.43970892203376,-108.6530385412935L150.21779430566565,-91.55880368739989L130.40585798817847,-118.08828469515979z" style="fill:rgb(228,198,159)"/><path d="M-57.891580695615396,-166.22191749755666L-65.20210382275708,-159.71426556331184L-51.77254657228051,-168.20078980507097z" style="fill:rgb(85,242,161)"/><path d="M-76.58186402577681,-158.47721463382652L-82.19548467443026,-155.59716995158172L-65.20210382275708,-159.71426556331184z" style="fill:rgb(76,239,161)"/><path d="M37.38235679008964,-171.61671358487L-1.1841601855691244,-175.80280420203076L3.378281927336829,-174.68723685726448z" style="fill:rgb(140,251,154)"/><path d="M-96.40196452738579,-145.23213012555885L-94.4060879710223,-147.44947763969287L-118.93961654256822,-129.749710000568z" style="fill:rgb(50,224,158)"/><path d="M6.536100657084393,175.66235348301404L7.59838671780325,172.80119352810738L-14.026115218854692,174.37287579560672z" style="fill:rgb(131,3,156)"/><path d="M135.8249925029484,110.90020344863822L120.3542271295738,125.02035034153175L109.24260599013841,138.00500856574513z" style="fill:rgb(214,38,154)"/><path d="M101.16818438989259,138.47722275971435L94.55313463296253,148.34603324666884L109.24260599013841,138.00500856574513z" style="fill:rgb(202,30,162)"/><path d="M-51.77254657228051,-168.20078980507097L-65.20210382275708,-159.71426556331184L-46.0729082862327,-169.75306983260592z" style="fill:rgb(87,243,162)"/><path d="M-82.19548467443026,-155.59716995158172L-87.15663296546585,-152.72864418670716L-65.20210382275708,-159.71426556331184z" style="fill:rgb(74,237,162)"/><path d="M-36.7450716578322,-171.34405266720313L-33.47625056437892,-171.31073269604943L-1.1841601855691244,-175.80280420203076z" style="fill:rgb(113,250,156)"/><path d="M168.02133137487633,-50.287827840147685L172.91644925616328,-3.443421746414971L175.03559232061545,-18.497517303985777z" style="fill:rgb(247,146,165)"/><path d="M-14.026115218854692,174.37287579560672L-57.26394806070079,164.21523950504223L-32.76142378099184,172.91537129036007z" style="fill:rgb(102,8,166)"/><path d="M31.125562663680576,168.16895617300847L23.2209001905612,174.4756252464475L41.2263180366634,170.9596162511582z" style="fill:rgb(145,6,163)"/><path d="M-41.00028427680547,-170.81436958961663L-46.0729082862327,-169.75306983260592L-65.20210382275708,-159.71426556331184z" style="fill:rgb(89,243,163)"/><path d="M-175.2022046229255,9.528366710136227L-170.72033704151636,42.747215704881796L-164.14110573784896,52.44150355525142z" style="fill:rgb(7,105,165)"/><path d="M-147.2840411278758,-94.94446439617332L-124.92449776315809,-121.47289451426991L-123.09065178595584,-125.25159088267232z" style="fill:rgb(31,205,157)"/><path d="M-57.26394806070079,164.21523950504223L-99.80034239138176,143.11818555656293L-74.83469213051627,159.26605982889023z" style="fill:rgb(72,19,167)"/><path d="M-91.28073085195284,-149.97912434592604L-65.20210382275708,-159.71426556331184L-87.15663296546585,-152.72864418670716z" style="fill:rgb(73,236,164)"/><path d="M133.43970892203376,-108.6530385412935L154.02586030650156,-80.80801221358674L150.21779430566565,-91.55880368739989z" style="fill:rgb(228,198,159)"/><path d="M133.43970892203376,-108.6530385412935L130.40585798817847,-118.08828469515979L104.95897594434813,-140.4241878981819z" style="fill:rgb(211,215,166)"/><path d="M-146.7642726539522,-90.28098287264017L-147.2840411278758,-94.94446439617332L-163.4077043394044,-65.08898588326765z" style="fill:rgb(17,181,164)"/><path d="M-31.333700197646827,-170.7107847583156L3.378281927336829,-174.68723685726448L-1.1841601855691244,-175.80280420203076z" style="fill:rgb(116,249,162)"/><path d="M31.125562663680576,168.16895617300847L41.2263180366634,170.9596162511582L59.712549384830275,165.2421616140703z" style="fill:rgb(160,10,167)"/><path d="M-31.333700197646827,-170.7107847583156L-1.1841601855691244,-175.80280420203076L-33.47625056437892,-171.31073269604943z" style="fill:rgb(116,249,162)"/><path d="M-172.69229761553817,-24.719073681120665L-163.11748329682493,-58.4990264259298L-163.4077043394044,-65.08898588326765z" style="fill:rgb(7,159,158)"/><path d="M79.14978118550644,150.56645799587608L77.77980927656608,157.57800292093222L94.55313463296253,148.34603324666884z" style="fill:rgb(189,23,166)"/><path d="M-96.40196452738579,-145.23213012555885L-123.09065178595584,-125.25159088267232L-124.92449776315809,-121.47289451426991z" style="fill:rgb(49,221,164)"/><path d="M-41.00028427680547,-170.81436958961663L-65.20210382275708,-159.71426556331184L-36.7450716578322,-171.34405266720313z" style="fill:rgb(91,243,165)"/><path d="M-170.72033704151636,42.747215704881796L-152.6637916315421,84.31956614083865L-164.14110573784896,52.44150355525142z" style="fill:rgb(12,82,158)"/><path d="M-91.28073085195284,-149.97912434592604L-94.4060879710223,-147.44947763969287L-65.20210382275708,-159.71426556331184z" style="fill:rgb(71,235,166)"/><path d="M79.14978118550644,150.56645799587608L59.712549384830275,165.2421616140703L77.77980927656608,157.57800292093222z" style="fill:rgb(175,16,168)"/><path d="M37.38235679008964,-171.61671358487L41.21903954295433,-168.35531255171722L74.82029904842939,-157.4725001231641z" style="fill:rgb(167,244,160)"/><path d="M101.16818438989259,138.47722275971435L109.24260599013841,138.00500856574513L120.3542271295738,125.02035034153175z" style="fill:rgb(202,30,162)"/><path d="M5.6069866440818235,-172.4687766393825L37.38235679008964,-171.61671358487L3.378281927336829,-174.68723685726448z" style="fill:rgb(143,248,165)"/><path d="M-146.7642726539522,-90.28098287264017L-163.4077043394044,-65.08898588326765L-163.11748329682493,-58.4990264259298z" style="fill:rgb(17,181,164)"/><path d="M-99.80034239138176,143.11818555656293L-121.54024153425596,120.52583843137667L-135.36797085527124,112.07302856308058z" style="fill:rgb(43,37,160)"/><path d="M-36.7450716578322,-171.34405266720313L-65.20210382275708,-159.71426556331184L-33.47625056437892,-171.31073269604943z" style="fill:rgb(92,243,167)"/><path d="M31.125562663680576,168.16895617300847L7.59838671780325,172.80119352810738L23.2209001905612,174.4756252464475z" style="fill:rgb(145,6,163)"/><path d="M5.6069866440818235,-172.4687766393825L41.21903954295433,-168.35531255171722L37.38235679008964,-171.61671358487z" style="fill:rgb(143,248,165)"/><path d="M-146.7642726539522,-90.28098287264017L-124.92449776315809,-121.47289451426991L-147.2840411278758,-94.94446439617332z" style="fill:rgb(32,201,168)"/><path d="M-96.40196452738579,-145.23213012555885L-65.20210382275708,-159.71426556331184L-94.4060879710223,-147.44947763969287z" style="fill:rgb(71,234,168)"/><path d="M135.8249925029484,110.90020344863822L158.8446938902751,72.83659087839213L145.63164497761113,89.33297035687939z" style="fill:rgb(231,62,162)"/><path d="M158.8446938902751,72.83659087839213L173.0683583597784,28.013829096452195L164.68158681933784,44.82854387286429z" style="fill:rgb(244,91,162)"/><path d="M-96.40196452738579,-145.23213012555885L-124.92449776315809,-121.47289451426991L-97.17643135433575,-143.41968371375262z" style="fill:rgb(49,221,164)"/><path d="M-172.69229761553817,-24.719073681120665L-175.2022046229255,9.528366710136227L-169.08278310084464,17.757613134508127z" style="fill:rgb(8,129,171)"/><path d="M74.82029904842939,-157.4725001231641L107.02526847017563,-132.47425420872736L104.95897594434813,-140.4241878981819z" style="fill:rgb(191,228,171)"/><path d="M-31.333700197646827,-170.7107847583156L5.6069866440818235,-172.4687766393825L3.378281927336829,-174.68723685726448z" style="fill:rgb(118,247,169)"/><path d="M-31.333700197646827,-170.7107847583156L-33.47625056437892,-171.31073269604943L-65.20210382275708,-159.71426556331184z" style="fill:rgb(93,242,169)"/><path d="M-135.36797085527124,112.07302856308058L-138.88996763240982,92.22033372576135L-152.6637916315421,84.31956614083865z" style="fill:rgb(31,56,171)"/><path d="M-96.40196452738579,-145.23213012555885L-97.17643135433575,-143.41968371375262L-65.20210382275708,-159.71426556331184z" style="fill:rgb(70,233,170)"/><path d="M79.14978118550644,150.56645799587608L94.55313463296253,148.34603324666884L101.16818438989259,138.47722275971435z" style="fill:rgb(189,23,166)"/><path d="M164.68158681933784,44.82854387286429L173.0683583597784,28.013829096452195L172.91644925616328,-3.443421746414971z" style="fill:rgb(244,113,175)"/><path d="M-96.674708520085,-142.08721310744477L-97.17643135433575,-143.41968371375262L-124.92449776315809,-121.47289451426991z" style="fill:rgb(50,218,171)"/><path d="M-14.026115218854692,174.37287579560672L-35.11786055552136,165.81091971885903L-57.26394806070079,164.21523950504223z" style="fill:rgb(102,8,166)"/><path d="M168.02133137487633,-50.287827840147685L165.6157155141247,-35.700586302740284L172.91644925616328,-3.443421746414971z" style="fill:rgb(247,146,165)"/><path d="M-175.2022046229255,9.528366710136227L-164.14110573784896,52.44150355525142L-169.08278310084464,17.757613134508127z" style="fill:rgb(7,105,165)"/><path d="M133.43970892203376,-108.6530385412935L104.95897594434813,-140.4241878981819L107.02526847017563,-132.47425420872736z" style="fill:rgb(211,215,166)"/><path d="M31.125562663680576,168.16895617300847L59.712549384830275,165.2421616140703L55.392554986210776,160.63786042421086z" style="fill:rgb(160,10,167)"/><path d="M-146.7642726539522,-90.28098287264017L-124.28730158182142,-118.58565660273679L-124.92449776315809,-121.47289451426991z" style="fill:rgb(32,201,168)"/><path d="M-31.333700197646827,-170.7107847583156L-30.415371669141585,-169.55360699148645L5.6069866440818235,-172.4687766393825z" style="fill:rgb(118,247,169)"/><path d="M-57.26394806070079,164.21523950504223L-80.48218371491457,148.3309437719497L-99.80034239138176,143.11818555656293z" style="fill:rgb(72,19,167)"/><path d="M-31.333700197646827,-170.7107847583156L-65.20210382275708,-159.71426556331184L-30.415371669141585,-169.55360699148645z" style="fill:rgb(94,242,172)"/><path d="M-96.674708520085,-142.08721310744477L-124.92449776315809,-121.47289451426991L-124.28730158182142,-118.58565660273679z" style="fill:rgb(50,218,171)"/><path d="M79.14978118550644,150.56645799587608L55.392554986210776,160.63786042421086L59.712549384830275,165.2421616140703z" style="fill:rgb(175,16,168)"/><path d="M151.2146528257168,-67.27316984808479L168.02133137487633,-50.287827840147685L154.02586030650156,-80.80801221358674z" style="fill:rgb(238,168,174)"/><path d="M-96.674708520085,-142.08721310744477L-65.20210382275708,-159.71426556331184L-97.17643135433575,-143.41968371375262z" style="fill:rgb(71,232,172)"/><path d="M135.8249925029484,110.90020344863822L127.08599306950525,106.05558257674491L120.3542271295738,125.02035034153175z" style="fill:rgb(219,52,174)"/><path d="M41.45738915275173,-163.5181651685311L74.82029904842939,-157.4725001231641L41.21903954295433,-168.35531255171722z" style="fill:rgb(168,238,175)"/><path d="M-135.36797085527124,112.07302856308058L-121.54024153425596,120.52583843137667L-138.88996763240982,92.22033372576135z" style="fill:rgb(31,56,171)"/><path d="M-172.69229761553817,-24.719073681120665L-158.11488119067417,-53.69467779370647L-163.11748329682493,-58.4990264259298z" style="fill:rgb(12,153,176)"/><path d="M-30.415371669141585,-169.55360699148645L-65.20210382275708,-159.71426556331184L-30.783212428855474,-167.8743109558446z" style="fill:rgb(94,241,174)"/><path d="M5.6069866440818235,-172.4687766393825L41.45738915275173,-163.5181651685311L41.21903954295433,-168.35531255171722z" style="fill:rgb(144,243,176)"/><path d="M-9.273645404427445,163.78518938778151L-14.026115218854692,174.37287579560672L7.59838671780325,172.80119352810738z" style="fill:rgb(118,10,177)"/><path d="M135.8249925029484,110.90020344863822L145.63164497761113,89.33297035687939L127.08599306950525,106.05558257674491z" style="fill:rgb(219,52,174)"/><path d="M74.82029904842939,-157.4725001231641L75.8929569364913,-151.07610375601797L107.02526847017563,-132.47425420872736z" style="fill:rgb(191,228,171)"/><path d="M-96.674708520085,-142.08721310744477L-94.89548025719347,-141.2945701600078L-65.20210382275708,-159.71426556331184z" style="fill:rgb(71,231,174)"/><path d="M-30.415371669141585,-169.55360699148645L5.32930147460247,-169.19551282809553L5.6069866440818235,-172.4687766393825z" style="fill:rgb(119,244,176)"/><path d="M-172.69229761553817,-24.719073681120665L-169.08278310084464,17.757613134508127L-167.0849436762915,-18.182382192157114z" style="fill:rgb(8,129,171)"/><path d="M-146.7642726539522,-90.28098287264017L-163.11748329682493,-58.4990264259298L-158.11488119067417,-53.69467779370647z" style="fill:rgb(21,176,179)"/><path d="M151.2146528257168,-67.27316984808479L165.6157155141247,-35.700586302740284L168.02133137487633,-50.287827840147685z" style="fill:rgb(238,168,174)"/><path d="M41.45738915275173,-163.5181651685311L75.8929569364913,-151.07610375601797L74.82029904842939,-157.4725001231641z" style="fill:rgb(168,238,175)"/><path d="M151.2146528257168,-67.27316984808479L154.02586030650156,-80.80801221358674L133.43970892203376,-108.6530385412935z" style="fill:rgb(225,188,181)"/><path d="M-146.7642726539522,-90.28098287264017L-121.11064953965862,-116.73403115756592L-124.28730158182142,-118.58565660273679z" style="fill:rgb(35,198,179)"/><path d="M-30.415371669141585,-169.55360699148645L-30.783212428855474,-167.8743109558446L5.32930147460247,-169.19551282809553z" style="fill:rgb(119,244,176)"/><path d="M-32.444274858753,-165.7276446682568L-30.783212428855474,-167.8743109558446L-65.20210382275708,-159.71426556331184z" style="fill:rgb(94,240,176)"/><path d="M-96.674708520085,-142.08721310744477L-124.28730158182142,-118.58565660273679L-121.11064953965862,-116.73403115756592z" style="fill:rgb(51,216,178)"/><path d="M-152.6637916315421,84.31956614083865L-150.8281073629989,59.32057505044692L-164.14110573784896,52.44150355525142z" style="fill:rgb(22,77,180)"/><path d="M101.16818438989259,138.47722275971435L120.3542271295738,125.02035034153175L127.08599306950525,106.05558257674491z" style="fill:rgb(205,43,183)"/><path d="M-9.273645404427445,163.78518938778151L-35.11786055552136,165.81091971885903L-14.026115218854692,174.37287579560672z" style="fill:rgb(118,10,177)"/><path d="M158.8446938902751,72.83659087839213L149.7929632732229,62.95224904663693L145.63164497761113,89.33297035687939z" style="fill:rgb(234,81,178)"/><path d="M-94.89548025719347,-141.2945701600078L-91.8813927112011,-141.0857119220167L-65.20210382275708,-159.71426556331184z" style="fill:rgb(72,231,177)"/><path d="M-172.69229761553817,-24.719073681120665L-167.0849436762915,-18.182382192157114L-158.11488119067417,-53.69467779370647z" style="fill:rgb(12,153,176)"/><path d="M158.8446938902751,72.83659087839213L164.68158681933784,44.82854387286429L149.7929632732229,62.95224904663693z" style="fill:rgb(234,81,178)"/><path d="M5.6069866440818235,-172.4687766393825L5.32930147460247,-169.19551282809553L41.45738915275173,-163.5181651685311z" style="fill:rgb(144,243,176)"/><path d="M-99.80034239138176,143.11818555656293L-101.2366675804613,125.55799540849414L-121.54024153425596,120.52583843137667z" style="fill:rgb(57,34,180)"/><path d="M-96.674708520085,-142.08721310744477L-121.11064953965862,-116.73403115756592L-94.89548025719347,-141.2945701600078z" style="fill:rgb(51,216,178)"/><path d="M31.125562663680576,168.16895617300847L-9.273645404427445,163.78518938778151L7.59838671780325,172.80119352810738z" style="fill:rgb(135,14,185)"/><path d="M164.68158681933784,44.82854387286429L172.91644925616328,-3.443421746414971L163.848460459308,13.85924152922798z" style="fill:rgb(244,113,175)"/><path d="M-35.35759837077652,-163.19556294819856L-32.444274858753,-165.7276446682568L-65.20210382275708,-159.71426556331184z" style="fill:rgb(93,239,178)"/><path d="M5.32930147460247,-169.19551282809553L-30.783212428855474,-167.8743109558446L-32.444274858753,-165.7276446682568z" style="fill:rgb(118,241,183)"/><path d="M165.6157155141247,-35.700586302740284L163.848460459308,13.85924152922798L172.91644925616328,-3.443421746414971z" style="fill:rgb(240,135,186)"/><path d="M-146.7642726539522,-90.28098287264017L-142.5411088015284,-87.07629932527024L-121.11064953965862,-116.73403115756592z" style="fill:rgb(35,198,179)"/><path d="M-87.73348614539591,-141.47854729971L-65.20210382275708,-159.71426556331184L-91.8813927112011,-141.0857119220167z" style="fill:rgb(74,231,179)"/><path d="M-99.80034239138176,143.11818555656293L-80.48218371491457,148.3309437719497L-101.2366675804613,125.55799540849414z" style="fill:rgb(57,34,180)"/><path d="M-146.7642726539522,-90.28098287264017L-158.11488119067417,-53.69467779370647L-142.5411088015284,-87.07629932527024z" style="fill:rgb(21,176,179)"/><path d="M-57.26394806070079,164.21523950504223L-35.11786055552136,165.81091971885903L-55.78853965873003,149.80828090754216z" style="fill:rgb(87,19,182)"/><path d="M-152.6637916315421,84.31956614083865L-138.88996763240982,92.22033372576135L-150.8281073629989,59.32057505044692z" style="fill:rgb(22,77,180)"/><path d="M-57.26394806070079,164.21523950504223L-55.78853965873003,149.80828090754216L-80.48218371491457,148.3309437719497z" style="fill:rgb(87,19,182)"/><path d="M-35.35759837077652,-163.19556294819856L-65.20210382275708,-159.71426556331184L-39.42477426176123,-160.36882882846268z" style="fill:rgb(92,237,180)"/><path d="M-87.73348614539591,-141.47854729971L-82.60436373373194,-142.46426279854583L-65.20210382275708,-159.71426556331184z" style="fill:rgb(75,231,180)"/><path d="M133.43970892203376,-108.6530385412935L107.02526847017563,-132.47425420872736L103.38536958629193,-122.21047407639124z" style="fill:rgb(209,205,186)"/><path d="M79.14978118550644,150.56645799587608L101.16818438989259,138.47722275971435L103.92664581893054,122.1399475447193z" style="fill:rgb(189,34,189)"/><path d="M-156.5915437529849,23.29798150621615L-169.08278310084464,17.757613134508127L-164.14110573784896,52.44150355525142z" style="fill:rgb(17,101,186)"/><path d="M5.32930147460247,-169.19551282809553L-32.444274858753,-165.7276446682568L2.4630470415565173,-164.9580463733805z" style="fill:rgb(118,241,183)"/><path d="M41.45738915275173,-163.5181651685311L5.32930147460247,-169.19551282809553L2.4630470415565173,-164.9580463733805z" style="fill:rgb(142,238,187)"/><path d="M-115.43163029055684,-116.03221760332542L-91.8813927112011,-141.0857119220167L-94.89548025719347,-141.2945701600078z" style="fill:rgb(54,215,184)"/><path d="M-44.49286988652117,-157.36530946385292L-39.42477426176123,-160.36882882846268L-65.20210382275708,-159.71426556331184z" style="fill:rgb(90,236,181)"/><path d="M-115.43163029055684,-116.03221760332542L-94.89548025719347,-141.2945701600078L-121.11064953965862,-116.73403115756592z" style="fill:rgb(54,215,184)"/><path d="M-76.69288866947649,-144.01207574994197L-65.20210382275708,-159.71426556331184L-82.60436373373194,-142.46426279854583z" style="fill:rgb(77,231,182)"/><path d="M151.2146528257168,-67.27316984808479L133.43970892203376,-108.6530385412935L130.1758313861689,-96.60911139880852z" style="fill:rgb(225,188,181)"/><path d="M103.38536958629193,-122.21047407639124L107.02526847017563,-132.47425420872736L75.8929569364913,-151.07610375601797z" style="fill:rgb(189,220,189)"/><path d="M31.125562663680576,168.16895617300847L55.392554986210776,160.63786042421086L48.433090490195596,148.90121701226994z" style="fill:rgb(153,19,190)"/><path d="M-101.2366675804613,125.55799540849414L-138.88996763240982,92.22033372576135L-121.54024153425596,120.52583843137667z" style="fill:rgb(45,53,191)"/><path d="M-44.49286988652117,-157.36530946385292L-65.20210382275708,-159.71426556331184L-50.36109872076191,-154.30794352236057z" style="fill:rgb(88,235,183)"/><path d="M-76.69288866947649,-144.01207574994197L-70.23891510603582,-146.0634871581813L-65.20210382275708,-159.71426556331184z" style="fill:rgb(80,231,183)"/><path d="M127.08599306950525,106.05558257674491L145.63164497761113,89.33297035687939L149.7929632732229,62.95224904663693z" style="fill:rgb(221,70,192)"/><path d="M79.14978118550644,150.56645799587608L48.433090490195596,148.90121701226994L55.392554986210776,160.63786042421086z" style="fill:rgb(171,26,191)"/><path d="M101.16818438989259,138.47722275971435L127.08599306950525,106.05558257674491L103.92664581893054,122.1399475447193z" style="fill:rgb(205,43,183)"/><path d="M-115.43163029055684,-116.03221760332542L-121.11064953965862,-116.73403115756592L-142.5411088015284,-87.07629932527024z" style="fill:rgb(40,195,190)"/><path d="M41.45738915275173,-163.5181651685311L72.10725026073845,-142.757655160159L75.8929569364913,-151.07610375601797z" style="fill:rgb(166,231,189)"/><path d="M-50.36109872076191,-154.30794352236057L-65.20210382275708,-159.71426556331184L-56.78964623981278,-151.32043731893617z" style="fill:rgb(86,234,183)"/><path d="M-87.73348614539591,-141.47854729971L-91.8813927112011,-141.0857119220167L-115.43163029055684,-116.03221760332542z" style="fill:rgb(59,214,190)"/><path d="M-63.51046131817578,-148.5336702501803L-65.20210382275708,-159.71426556331184L-70.23891510603582,-146.0634871581813z" style="fill:rgb(82,232,183)"/><path d="M-63.51046131817578,-148.5336702501803L-56.78964623981278,-151.32043731893617L-65.20210382275708,-159.71426556331184z" style="fill:rgb(84,233,184)"/><path d="M-167.0849436762915,-18.182382192157114L-169.08278310084464,17.757613134508127L-156.5915437529849,23.29798150621615z" style="fill:rgb(17,125,191)"/><path d="M133.43970892203376,-108.6530385412935L103.38536958629193,-122.21047407639124L130.1758313861689,-96.60911139880852z" style="fill:rgb(209,205,186)"/><path d="M-2.963386752693396,-159.89877483034394L-32.444274858753,-165.7276446682568L-35.35759837077652,-163.19556294819856z" style="fill:rgb(116,238,189)"/><path d="M31.125562663680576,168.16895617300847L19.06399293488629,158.08143256527904L-9.273645404427445,163.78518938778151z" style="fill:rgb(135,14,185)"/><path d="M41.45738915275173,-163.5181651685311L2.4630470415565173,-164.9580463733805L37.89330738649169,-157.22384366139894z" style="fill:rgb(142,238,187)"/><path d="M-156.5915437529849,23.29798150621615L-164.14110573784896,52.44150355525142L-150.8281073629989,59.32057505044692z" style="fill:rgb(17,101,186)"/><path d="M-2.963386752693396,-159.89877483034394L2.4630470415565173,-164.9580463733805L-32.444274858753,-165.7276446682568z" style="fill:rgb(116,238,189)"/><path d="M-9.273645404427445,163.78518938778151L-55.78853965873003,149.80828090754216L-35.11786055552136,165.81091971885903z" style="fill:rgb(105,21,195)"/><path d="M-134.592780887111,-85.54397655476274L-142.5411088015284,-87.07629932527024L-158.11488119067417,-53.69467779370647z" style="fill:rgb(28,173,193)"/><path d="M151.2146528257168,-67.27316984808479L156.0255396112826,-18.721375146022236L165.6157155141247,-35.700586302740284z" style="fill:rgb(231,156,195)"/><path d="M-167.0849436762915,-18.182382192157114L-148.28969160151982,-51.00386828941381L-158.11488119067417,-53.69467779370647z" style="fill:rgb(20,150,193)"/><path d="M165.6157155141247,-35.700586302740284L156.0255396112826,-18.721375146022236L163.848460459308,13.85924152922798z" style="fill:rgb(240,135,186)"/><path d="M-2.963386752693396,-159.89877483034394L-35.35759837077652,-163.19556294819856L-39.42477426176123,-160.36882882846268z" style="fill:rgb(112,234,194)"/><path d="M41.45738915275173,-163.5181651685311L37.89330738649169,-157.22384366139894L72.10725026073845,-142.757655160159z" style="fill:rgb(166,231,189)"/><path d="M-55.78853965873003,149.80828090754216L-101.2366675804613,125.55799540849414L-80.48218371491457,148.3309437719497z" style="fill:rgb(74,34,197)"/><path d="M-115.43163029055684,-116.03221760332542L-142.5411088015284,-87.07629932527024L-134.592780887111,-85.54397655476274z" style="fill:rgb(40,195,190)"/><path d="M103.38536958629193,-122.21047407639124L75.8929569364913,-151.07610375601797L72.10725026073845,-142.757655160159z" style="fill:rgb(189,220,189)"/><path d="M164.68158681933784,44.82854387286429L163.848460459308,13.85924152922798L147.70853168447132,32.728767856621594z" style="fill:rgb(233,101,193)"/><path d="M31.125562663680576,168.16895617300847L48.433090490195596,148.90121701226994L19.06399293488629,158.08143256527904z" style="fill:rgb(153,19,190)"/><path d="M79.14978118550644,150.56645799587608L103.92664581893054,122.1399475447193L77.24480895404224,136.69682248522187z" style="fill:rgb(189,34,189)"/><path d="M-87.73348614539591,-141.47854729971L-115.43163029055684,-116.03221760332542L-107.40426141062326,-116.55006489230021z" style="fill:rgb(59,214,190)"/><path d="M164.68158681933784,44.82854387286429L147.70853168447132,32.728767856621594L149.7929632732229,62.95224904663693z" style="fill:rgb(233,101,193)"/><path d="M-2.963386752693396,-159.89877483034394L37.89330738649169,-157.22384366139894L2.4630470415565173,-164.9580463733805z" style="fill:rgb(139,233,197)"/><path d="M79.14978118550644,150.56645799587608L77.24480895404224,136.69682248522187L48.433090490195596,148.90121701226994z" style="fill:rgb(171,26,191)"/><path d="M-87.73348614539591,-141.47854729971L-97.29757612651011,-118.30476292900742L-82.60436373373194,-142.46426279854583z" style="fill:rgb(64,214,195)"/><path d="M-167.0849436762915,-18.182382192157114L-156.5915437529849,23.29798150621615L-155.75224043043423,-14.103042706342233z" style="fill:rgb(17,125,191)"/><path d="M-134.592780887111,-85.54397655476274L-158.11488119067417,-53.69467779370647L-148.28969160151982,-51.00386828941381z" style="fill:rgb(28,173,193)"/><path d="M-44.49286988652117,-157.36530946385292L-10.801118251594744,-154.2108314561945L-39.42477426176123,-160.36882882846268z" style="fill:rgb(108,231,199)"/><path d="M-150.8281073629989,59.32057505044692L-138.88996763240982,92.22033372576135L-118.35931040351103,96.64035441050962z" style="fill:rgb(36,75,200)"/><path d="M-167.0849436762915,-18.182382192157114L-155.75224043043423,-14.103042706342233L-148.28969160151982,-51.00386828941381z" style="fill:rgb(20,150,193)"/><path d="M-101.2366675804613,125.55799540849414L-118.35931040351103,96.64035441050962L-138.88996763240982,92.22033372576135z" style="fill:rgb(45,53,191)"/><path d="M-76.69288866947649,-144.01207574994197L-82.60436373373194,-142.46426279854583L-97.29757612651011,-118.30476292900742z" style="fill:rgb(70,215,200)"/><path d="M127.08599306950525,106.05558257674491L149.7929632732229,62.95224904663693L128.739267019805,81.52552163046956z" style="fill:rgb(221,70,192)"/><path d="M-107.40426141062326,-116.55006489230021L-115.43163029055684,-116.03221760332542L-134.592780887111,-85.54397655476274z" style="fill:rgb(46,194,199)"/><path d="M-2.963386752693396,-159.89877483034394L-39.42477426176123,-160.36882882846268L-10.801118251594744,-154.2108314561945z" style="fill:rgb(112,234,194)"/><path d="M-87.73348614539591,-141.47854729971L-107.40426141062326,-116.55006489230021L-97.29757612651011,-118.30476292900742z" style="fill:rgb(64,214,195)"/><path d="M120.21107067464276,-82.28738506342707L151.2146528257168,-67.27316984808479L130.1758313861689,-96.60911139880852z" style="fill:rgb(218,177,201)"/><path d="M-9.273645404427445,163.78518938778151L-26.678732377778335,147.22721510263588L-55.78853965873003,149.80828090754216z" style="fill:rgb(105,21,195)"/><path d="M30.483366985893237,-149.66617735674262L72.10725026073845,-142.757655160159L37.89330738649169,-157.22384366139894z" style="fill:rgb(162,224,202)"/><path d="M-2.963386752693396,-159.89877483034394L30.483366985893237,-149.66617735674262L37.89330738649169,-157.22384366139894z" style="fill:rgb(139,233,197)"/><path d="M151.2146528257168,-67.27316984808479L141.2985574721608,-51.33297580464579L156.0255396112826,-18.721375146022236z" style="fill:rgb(231,156,195)"/><path d="M147.70853168447132,32.728767856621594L163.848460459308,13.85924152922798L156.0255396112826,-18.721375146022236z" style="fill:rgb(228,122,204)"/><path d="M-44.49286988652117,-157.36530946385292L-50.36109872076191,-154.30794352236057L-32.47160707807676,-141.91295548631305z" style="fill:rgb(102,227,202)"/><path d="M-76.69288866947649,-144.01207574994197L-72.53863261557126,-125.277475579093L-70.23891510603582,-146.0634871581813z" style="fill:rgb(76,216,203)"/><path d="M127.08599306950525,106.05558257674491L102.33518992913481,99.56105373081849L103.92664581893054,122.1399475447193z" style="fill:rgb(204,59,202)"/><path d="M-72.53863261557126,-125.277475579093L-63.51046131817578,-148.5336702501803L-70.23891510603582,-146.0634871581813z" style="fill:rgb(83,218,204)"/><path d="M-50.36109872076191,-154.30794352236057L-56.78964623981278,-151.32043731893617L-45.39546003819531,-135.84959018253977z" style="fill:rgb(96,224,204)"/><path d="M120.21107067464276,-82.28738506342707L130.1758313861689,-96.60911139880852L103.38536958629193,-122.21047407639124z" style="fill:rgb(202,195,204)"/><path d="M-55.78853965873003,149.80828090754216L-74.97112602837939,126.62811615498113L-101.2366675804613,125.55799540849414z" style="fill:rgb(74,34,197)"/><path d="M-63.51046131817578,-148.5336702501803L-45.39546003819531,-135.84959018253977L-56.78964623981278,-151.32043731893617z" style="fill:rgb(90,221,205)"/><path d="M-44.49286988652117,-157.36530946385292L-20.77119152824405,-148.1267942073875L-10.801118251594744,-154.2108314561945z" style="fill:rgb(108,231,199)"/><path d="M-107.40426141062326,-116.55006489230021L-134.592780887111,-85.54397655476274L-123.07298100824607,-85.83359449882015z" style="fill:rgb(46,194,199)"/><path d="M-9.273645404427445,163.78518938778151L19.06399293488629,158.08143256527904L5.465937390256044,140.52742770329215z" style="fill:rgb(125,26,204)"/><path d="M-156.5915437529849,23.29798150621615L-150.8281073629989,59.32057505044692L-130.80589049341322,62.794958027708944z" style="fill:rgb(31,98,206)"/><path d="M128.739267019805,81.52552163046956L149.7929632732229,62.95224904663693L147.70853168447132,32.728767856621594z" style="fill:rgb(219,89,207)"/><path d="M93.75555160267164,-109.92205467292908L103.38536958629193,-122.21047407639124L72.10725026073845,-142.757655160159z" style="fill:rgb(183,211,205)"/><path d="M-76.69288866947649,-144.01207574994197L-97.29757612651011,-118.30476292900742L-85.50913286126413,-121.25027111263182z" style="fill:rgb(70,215,200)"/><path d="M120.21107067464276,-82.28738506342707L141.2985574721608,-51.33297580464579L151.2146528257168,-67.27316984808479z" style="fill:rgb(218,177,201)"/><path d="M127.08599306950525,106.05558257674491L128.739267019805,81.52552163046956L102.33518992913481,99.56105373081849z" style="fill:rgb(204,59,202)"/><path d="M-74.97112602837939,126.62811615498113L-118.35931040351103,96.64035441050962L-101.2366675804613,125.55799540849414z" style="fill:rgb(63,53,209)"/><path d="M-150.8281073629989,59.32057505044692L-118.35931040351103,96.64035441050962L-130.80589049341322,62.794958027708944z" style="fill:rgb(36,75,200)"/><path d="M-44.49286988652117,-157.36530946385292L-32.47160707807676,-141.91295548631305L-20.77119152824405,-148.1267942073875z" style="fill:rgb(102,227,202)"/><path d="M-133.76653481930273,-50.68952883423109L-134.592780887111,-85.54397655476274L-148.28969160151982,-51.00386828941381z" style="fill:rgb(37,172,206)"/><path d="M30.483366985893237,-149.66617735674262L63.30279970420297,-132.76499338499752L72.10725026073845,-142.757655160159z" style="fill:rgb(162,224,202)"/><path d="M-76.69288866947649,-144.01207574994197L-85.50913286126413,-121.25027111263182L-72.53863261557126,-125.277475579093z" style="fill:rgb(76,216,203)"/><path d="M-2.963386752693396,-159.89877483034394L-10.801118251594744,-154.2108314561945L19.379394294290886,-141.12581389335287z" style="fill:rgb(133,227,206)"/><path d="M-9.273645404427445,163.78518938778151L5.465937390256044,140.52742770329215L-26.678732377778335,147.22721510263588z" style="fill:rgb(125,26,204)"/><path d="M71.84980308221017,116.02393759912876L77.24480895404224,136.69682248522187L103.92664581893054,122.1399475447193z" style="fill:rgb(186,49,209)"/><path d="M-133.76653481930273,-50.68952883423109L-148.28969160151982,-51.00386828941381L-155.75224043043423,-14.103042706342233z" style="fill:rgb(31,148,209)"/><path d="M-2.963386752693396,-159.89877483034394L19.379394294290886,-141.12581389335287L30.483366985893237,-149.66617735674262z" style="fill:rgb(133,227,206)"/><path d="M-138.77815991374564,-12.863123213980083L-155.75224043043423,-14.103042706342233L-156.5915437529849,23.29798150621615z" style="fill:rgb(29,123,209)"/><path d="M19.06399293488629,158.08143256527904L48.433090490195596,148.90121701226994L38.93927473802908,129.9456846622026z" style="fill:rgb(145,32,210)"/><path d="M-133.76653481930273,-50.68952883423109L-123.07298100824607,-85.83359449882015L-134.592780887111,-85.54397655476274z" style="fill:rgb(37,172,206)"/><path d="M-50.36109872076191,-154.30794352236057L-45.39546003819531,-135.84959018253977L-32.47160707807676,-141.91295548631305z" style="fill:rgb(96,224,204)"/><path d="M-107.40426141062326,-116.55006489230021L-108.34816611536847,-88.01997642077966L-97.29757612651011,-118.30476292900742z" style="fill:rgb(55,194,208)"/><path d="M93.75555160267164,-109.92205467292908L72.10725026073845,-142.757655160159L63.30279970420297,-132.76499338499752z" style="fill:rgb(183,211,205)"/><path d="M48.433090490195596,148.90121701226994L77.24480895404224,136.69682248522187L71.84980308221017,116.02393759912876z" style="fill:rgb(166,39,211)"/><path d="M120.21107067464276,-82.28738506342707L103.38536958629193,-122.21047407639124L93.75555160267164,-109.92205467292908z" style="fill:rgb(202,195,204)"/><path d="M-72.53863261557126,-125.277475579093L-58.959924228513586,-130.2167877854654L-63.51046131817578,-148.5336702501803z" style="fill:rgb(83,218,204)"/><path d="M-63.51046131817578,-148.5336702501803L-58.959924228513586,-130.2167877854654L-45.39546003819531,-135.84959018253977z" style="fill:rgb(90,221,205)"/><path d="M-107.40426141062326,-116.55006489230021L-123.07298100824607,-85.83359449882015L-108.34816611536847,-88.01997642077966z" style="fill:rgb(55,194,208)"/><path d="M147.70853168447132,32.728767856621594L156.0255396112826,-18.721375146022236L139.11705431813638,0z" style="fill:rgb(228,122,204)"/><path d="M141.2985574721608,-51.33297580464579L139.11705431813638,0L156.0255396112826,-18.721375146022236z" style="fill:rgb(220,144,213)"/><path d="M-156.5915437529849,23.29798150621615L-130.80589049341322,62.794958027708944L-137.76930117419954,25.651195219148615z" style="fill:rgb(31,98,206)"/><path d="M-55.78853965873003,149.80828090754216L-26.678732377778335,147.22721510263588L-43.74854847088472,123.40697317959018z" style="fill:rgb(94,37,211)"/><path d="M71.84980308221017,116.02393759912876L103.92664581893054,122.1399475447193L102.33518992913481,99.56105373081849z" style="fill:rgb(186,49,209)"/><path d="M-55.78853965873003,149.80828090754216L-43.74854847088472,123.40697317959018L-74.97112602837939,126.62811615498113z" style="fill:rgb(94,37,211)"/><path d="M-108.34816611536847,-88.01997642077966L-85.50913286126413,-121.25027111263182L-97.29757612651011,-118.30476292900742z" style="fill:rgb(64,195,214)"/><path d="M128.739267019805,81.52552163046956L147.70853168447132,32.728767856621594L124.84182086077894,52.271585245799166z" style="fill:rgb(219,89,207)"/><path d="M-133.76653481930273,-50.68952883423109L-155.75224043043423,-14.103042706342233L-138.77815991374564,-12.863123213980083z" style="fill:rgb(31,148,209)"/><path d="M-138.77815991374564,-12.863123213980083L-156.5915437529849,23.29798150621615L-137.76930117419954,25.651195219148615z" style="fill:rgb(29,123,209)"/><path d="M19.06399293488629,158.08143256527904L38.93927473802908,129.9456846622026L5.465937390256044,140.52742770329215z" style="fill:rgb(145,32,210)"/><path d="M4.946648219077819,-131.9661149044336L-10.801118251594744,-154.2108314561945L-20.77119152824405,-148.1267942073875z" style="fill:rgb(126,221,213)"/><path d="M-74.97112602837939,126.62811615498113L-91.56797664847699,97.05619439443365L-118.35931040351103,96.64035441050962z" style="fill:rgb(63,53,209)"/><path d="M49.586902024885916,-121.46212758660377L63.30279970420297,-132.76499338499752L30.483366985893237,-149.66617735674262z" style="fill:rgb(154,216,214)"/><path d="M-133.76653481930273,-50.68952883423109L-108.34816611536847,-88.01997642077966L-123.07298100824607,-85.83359449882015z" style="fill:rgb(48,172,217)"/><path d="M48.433090490195596,148.90121701226994L71.84980308221017,116.02393759912876L38.93927473802908,129.9456846622026z" style="fill:rgb(166,39,211)"/><path d="M4.946648219077819,-131.9661149044336L19.379394294290886,-141.12581389335287L-10.801118251594744,-154.2108314561945z" style="fill:rgb(126,221,213)"/><path d="M4.946648219077819,-131.9661149044336L-20.77119152824405,-148.1267942073875L-32.47160707807676,-141.91295548631305z" style="fill:rgb(117,216,218)"/><path d="M49.586902024885916,-121.46212758660377L30.483366985893237,-149.66617735674262L19.379394294290886,-141.12581389335287z" style="fill:rgb(154,216,214)"/><path d="M120.21107067464276,-82.28738506342707L124.1734095009221,-33.59074346615652L141.2985574721608,-51.33297580464579z" style="fill:rgb(207,165,219)"/><path d="M-72.53863261557126,-125.277475579093L-85.50913286126413,-121.25027111263182L-90.98267162771141,-92.07140241863951z" style="fill:rgb(75,198,219)"/><path d="M-104.54729327919212,62.403578152599636L-130.80589049341322,62.794958027708944L-118.35931040351103,96.64035441050962z" style="fill:rgb(54,75,218)"/><path d="M93.75555160267164,-109.92205467292908L63.30279970420297,-132.76499338499752L49.586902024885916,-121.46212758660377z" style="fill:rgb(174,202,219)"/><path d="M5.465937390256044,140.52742770329215L-43.74854847088472,123.40697317959018L-26.678732377778335,147.22721510263588z" style="fill:rgb(115,41,221)"/><path d="M141.2985574721608,-51.33297580464579L124.1734095009221,-33.59074346615652L139.11705431813638,0z" style="fill:rgb(220,144,213)"/><path d="M128.739267019805,81.52552163046956L96.12384445647072,71.43684860946014L102.33518992913481,99.56105373081849z" style="fill:rgb(201,77,218)"/><path d="M-108.34816611536847,-88.01997642077966L-90.98267162771141,-92.07140241863951L-85.50913286126413,-121.25027111263182z" style="fill:rgb(64,195,214)"/><path d="M120.21107067464276,-82.28738506342707L93.75555160267164,-109.92205467292908L78.16665601071783,-96.06166630227236z" style="fill:rgb(192,184,221)"/><path d="M-104.54729327919212,62.403578152599636L-118.35931040351103,96.64035441050962L-91.56797664847699,97.05619439443365z" style="fill:rgb(54,75,218)"/><path d="M147.70853168447132,32.728767856621594L139.11705431813638,0L115.2441568486765,19.583776682905185z" style="fill:rgb(213,110,220)"/><path d="M128.739267019805,81.52552163046956L124.84182086077894,52.271585245799166L96.12384445647072,71.43684860946014z" style="fill:rgb(201,77,218)"/><path d="M-31.365862493006325,-113.50212593400342L-32.47160707807676,-141.91295548631305L-45.39546003819531,-135.84959018253977z" style="fill:rgb(107,210,222)"/><path d="M-133.76653481930273,-50.68952883423109L-114.96332565469983,-52.90723501269069L-108.34816611536847,-88.01997642077966z" style="fill:rgb(48,172,217)"/><path d="M-137.76930117419954,25.651195219148615L-130.80589049341322,62.794958027708944L-104.54729327919212,62.403578152599636z" style="fill:rgb(48,98,223)"/><path d="M147.70853168447132,32.728767856621594L115.2441568486765,19.583776682905185L124.84182086077894,52.271585245799166z" style="fill:rgb(213,110,220)"/><path d="M-72.53863261557126,-125.277475579093L-51.53752077459433,-105.11245791700445L-58.959924228513586,-130.2167877854654z" style="fill:rgb(86,201,222)"/><path d="M-31.365862493006325,-113.50212593400342L-45.39546003819531,-135.84959018253977L-58.959924228513586,-130.2167877854654z" style="fill:rgb(97,205,223)"/><path d="M4.946648219077819,-131.9661149044336L49.586902024885916,-121.46212758660377L19.379394294290886,-141.12581389335287z" style="fill:rgb(144,208,224)"/><path d="M4.946648219077819,-131.9661149044336L-32.47160707807676,-141.91295548631305L-12.22928435388787,-122.6064649059477z" style="fill:rgb(117,216,218)"/><path d="M-133.76653481930273,-50.68952883423109L-138.77815991374564,-12.863123213980083L-116.60574268775736,-14.726463830507868z" style="fill:rgb(45,148,223)"/><path d="M93.75555160267164,-109.92205467292908L49.586902024885916,-121.46212758660377L78.16665601071783,-96.06166630227236z" style="fill:rgb(174,202,219)"/><path d="M71.84980308221017,116.02393759912876L102.33518992913481,99.56105373081849L96.12384445647072,71.43684860946014z" style="fill:rgb(181,66,225)"/><path d="M120.21107067464276,-82.28738506342707L103.50067206977226,-66.22100879122026L124.1734095009221,-33.59074346615652z" style="fill:rgb(207,165,219)"/><path d="M-138.77815991374564,-12.863123213980083L-137.76930117419954,25.651195219148615L-113.07497509871814,24.443917912743846z" style="fill:rgb(45,123,225)"/><path d="M-72.53863261557126,-125.277475579093L-90.98267162771141,-92.07140241863951L-71.74176571333238,-97.85241530009432z" style="fill:rgb(75,198,219)"/><path d="M-74.97112602837939,126.62811615498113L-59.523410633030956,93.15708143911863L-91.56797664847699,97.05619439443365z" style="fill:rgb(83,56,223)"/><path d="M120.21107067464276,-82.28738506342707L78.16665601071783,-96.06166630227236L103.50067206977226,-66.22100879122026z" style="fill:rgb(192,184,221)"/><path d="M-74.97112602837939,126.62811615498113L-43.74854847088472,123.40697317959018L-59.523410633030956,93.15708143911863z" style="fill:rgb(83,56,223)"/><path d="M-31.365862493006325,-113.50212593400342L-12.22928435388787,-122.6064649059477L-32.47160707807676,-141.91295548631305z" style="fill:rgb(107,210,222)"/><path d="M5.465937390256044,140.52742770329215L-9.060867852895825,115.83689691319887L-43.74854847088472,123.40697317959018z" style="fill:rgb(115,41,221)"/><path d="M-133.76653481930273,-50.68952883423109L-116.60574268775736,-14.726463830507868L-114.96332565469983,-52.90723501269069z" style="fill:rgb(45,148,223)"/><path d="M5.465937390256044,140.52742770329215L38.93927473802908,129.9456846622026L27.211610246834585,104.1973501081238z" style="fill:rgb(137,48,227)"/><path d="M-72.53863261557126,-125.277475579093L-71.74176571333238,-97.85241530009432L-51.53752077459433,-105.11245791700445z" style="fill:rgb(86,201,222)"/><path d="M71.84980308221017,116.02393759912876L27.211610246834585,104.1973501081238L38.93927473802908,129.9456846622026z" style="fill:rgb(159,56,228)"/><path d="M-92.59590879813777,-57.67789794258771L-90.98267162771141,-92.07140241863951L-108.34816611536847,-88.01997642077966z" style="fill:rgb(61,173,226)"/><path d="M-31.365862493006325,-113.50212593400342L-58.959924228513586,-130.2167877854654L-51.53752077459433,-105.11245791700445z" style="fill:rgb(97,205,223)"/><path d="M-137.76930117419954,25.651195219148615L-104.54729327919212,62.403578152599636L-113.07497509871814,24.443917912743846z" style="fill:rgb(48,98,223)"/><path d="M-92.59590879813777,-57.67789794258771L-108.34816611536847,-88.01997642077966L-114.96332565469983,-52.90723501269069z" style="fill:rgb(61,173,226)"/><path d="M4.946648219077819,-131.9661149044336L31.373778740518805,-109.34140048402348L49.586902024885916,-121.46212758660377z" style="fill:rgb(144,208,224)"/><path d="M-138.77815991374564,-12.863123213980083L-113.07497509871814,24.443917912743846L-116.60574268775736,-14.726463830507868z" style="fill:rgb(45,123,225)"/><path d="M100.21438544487535,-14.864305520276819L139.11705431813638,0L124.1734095009221,-33.59074346615652z" style="fill:rgb(204,132,228)"/><path d="M96.12384445647072,71.43684860946014L124.84182086077894,52.271585245799166L115.2441568486765,19.583776682905185z" style="fill:rgb(195,98,231)"/><path d="M5.465937390256044,140.52742770329215L27.211610246834585,104.1973501081238L-9.060867852895825,115.83689691319887z" style="fill:rgb(137,48,227)"/><path d="M71.84980308221017,116.02393759912876L96.12384445647072,71.43684860946014L62.9680804445821,89.10081712537179z" style="fill:rgb(181,66,225)"/><path d="M100.21438544487535,-14.864305520276819L115.2441568486765,19.583776682905185L139.11705431813638,0z" style="fill:rgb(204,132,228)"/><path d="M-92.59590879813777,-57.67789794258771L-71.74176571333238,-97.85241530009432L-90.98267162771141,-92.07140241863951z" style="fill:rgb(75,176,233)"/><path d="M49.586902024885916,-121.46212758660377L57.04176483832219,-81.2390206269002L78.16665601071783,-96.06166630227236z" style="fill:rgb(162,192,231)"/><path d="M71.84980308221017,116.02393759912876L62.9680804445821,89.10081712537179L27.211610246834585,104.1973501081238z" style="fill:rgb(159,56,228)"/><path d="M4.946648219077819,-131.9661149044336L-12.22928435388787,-122.6064649059477L9.398118402027611,-96.98378603860898z" style="fill:rgb(133,200,231)"/><path d="M103.50067206977226,-66.22100879122026L100.21438544487535,-14.864305520276819L124.1734095009221,-33.59074346615652z" style="fill:rgb(193,153,233)"/><path d="M-73.0370451117942,57.888063009346155L-104.54729327919212,62.403578152599636L-91.56797664847699,97.05619439443365z" style="fill:rgb(74,77,232)"/><path d="M-92.59590879813777,-57.67789794258771L-114.96332565469983,-52.90723501269069L-116.60574268775736,-14.726463830507868z" style="fill:rgb(61,150,234)"/><path d="M103.50067206977226,-66.22100879122026L78.16665601071783,-96.06166630227236L57.04176483832219,-81.2390206269002z" style="fill:rgb(178,173,234)"/><path d="M49.586902024885916,-121.46212758660377L31.373778740518805,-109.34140048402348L57.04176483832219,-81.2390206269002z" style="fill:rgb(162,192,231)"/><path d="M4.946648219077819,-131.9661149044336L9.398118402027611,-96.98378603860898L31.373778740518805,-109.34140048402348z" style="fill:rgb(133,200,231)"/><path d="M-73.0370451117942,57.888063009346155L-91.56797664847699,97.05619439443365L-59.523410633030956,93.15708143911863z" style="fill:rgb(74,77,232)"/><path d="M-43.74854847088472,123.40697317959018L-9.060867852895825,115.83689691319887L-23.759786394380153,84.91795102638619z" style="fill:rgb(105,60,233)"/><path d="M-31.365862493006325,-113.50212593400342L9.398118402027611,-96.98378603860898L-12.22928435388787,-122.6064649059477z" style="fill:rgb(119,193,236)"/><path d="M-43.74854847088472,123.40697317959018L-23.759786394380153,84.91795102638619L-59.523410633030956,93.15708143911863z" style="fill:rgb(105,60,233)"/><path d="M-51.53752077459433,-105.11245791700445L-71.74176571333238,-97.85241530009432L-67.67762706451092,-64.85645212662145z" style="fill:rgb(90,181,237)"/><path d="M-73.0370451117942,57.888063009346155L-113.07497509871814,24.443917912743846L-104.54729327919212,62.403578152599636z" style="fill:rgb(68,101,237)"/><path d="M96.12384445647072,71.43684860946014L115.2441568486765,19.583776682905185L85.33276703637536,38.97353152516238z" style="fill:rgb(195,98,231)"/><path d="M-92.59590879813777,-57.67789794258771L-67.67762706451092,-64.85645212662145L-71.74176571333238,-97.85241530009432z" style="fill:rgb(75,176,233)"/><path d="M-31.365862493006325,-113.50212593400342L-51.53752077459433,-105.11245791700445L-41.45243468212625,-74.1307776147295z" style="fill:rgb(105,186,238)"/><path d="M-116.60574268775736,-14.726463830507868L-113.07497509871814,24.443917912743846L-83.4346693109138,19.501287243760288z" style="fill:rgb(63,125,237)"/><path d="M103.50067206977226,-66.22100879122026L80.44935729317913,-49.135892091791206L100.21438544487535,-14.864305520276819z" style="fill:rgb(193,153,233)"/><path d="M-92.59590879813777,-57.67789794258771L-116.60574268775736,-14.726463830507868L-90.07120118480447,-19.78410860810294z" style="fill:rgb(61,150,234)"/><path d="M103.50067206977226,-66.22100879122026L57.04176483832219,-81.2390206269002L80.44935729317913,-49.135892091791206z" style="fill:rgb(178,173,234)"/><path d="M27.211610246834585,104.1973501081238L-23.759786394380153,84.91795102638619L-9.060867852895825,115.83689691319887z" style="fill:rgb(128,67,240)"/><path d="M100.21438544487535,-14.864305520276819L85.33276703637536,38.97353152516238L115.2441568486765,19.583776682905185z" style="fill:rgb(186,119,240)"/><path d="M96.12384445647072,71.43684860946014L50.86053765920907,57.03434960964473L62.9680804445821,89.10081712537179z" style="fill:rgb(174,86,238)"/><path d="M-31.365862493006325,-113.50212593400342L-15.297789187827808,-85.03427976632493L9.398118402027611,-96.98378603860898z" style="fill:rgb(119,193,236)"/><path d="M-51.53752077459433,-105.11245791700445L-67.67762706451092,-64.85645212662145L-41.45243468212625,-74.1307776147295z" style="fill:rgb(90,181,237)"/><path d="M-116.60574268775736,-14.726463830507868L-83.4346693109138,19.501287243760288L-90.07120118480447,-19.78410860810294z" style="fill:rgb(63,125,237)"/><path d="M-73.0370451117942,57.888063009346155L-83.4346693109138,19.501287243760288L-113.07497509871814,24.443917912743846z" style="fill:rgb(68,101,237)"/><path d="M27.211610246834585,104.1973501081238L62.9680804445821,89.10081712537179L50.86053765920907,57.03434960964473z" style="fill:rgb(151,76,241)"/><path d="M96.12384445647072,71.43684860946014L85.33276703637536,38.97353152516238L50.86053765920907,57.03434960964473z" style="fill:rgb(174,86,238)"/><path d="M-31.365862493006325,-113.50212593400342L-41.45243468212625,-74.1307776147295L-15.297789187827808,-85.03427976632493z" style="fill:rgb(105,186,238)"/><path d="M-73.0370451117942,57.888063009346155L-59.523410633030956,93.15708143911863L-23.759786394380153,84.91795102638619z" style="fill:rgb(96,82,242)"/><path d="M31.373778740518805,-109.34140048402348L31.228196562981967,-66.20188069219886L57.04176483832219,-81.2390206269002zM31.373778740518805,-109.34140048402348L9.398118402027611,-96.98378603860898L31.228196562981967,-66.20188069219886z" style="fill:rgb(148,183,240)"/><path d="M-92.59590879813777,-57.67789794258771L-60.40351362666074,-27.914526605045104L-67.67762706451092,-64.85645212662145zM-92.59590879813777,-57.67789794258771L-90.07120118480447,-19.78410860810294L-60.40351362666074,-27.914526605045104z" style="fill:rgb(78,153,242)"/><path d="M27.211610246834585,104.1973501081238L13.767218953777672,72.65860376133305L-23.759786394380153,84.91795102638619z" style="fill:rgb(128,67,240)"/><path d="M100.21438544487535,-14.864305520276819L70.35726361816488,3.850090420038987L85.33276703637536,38.97353152516238z" style="fill:rgb(186,119,240)"/><path d="M27.211610246834585,104.1973501081238L50.86053765920907,57.03434960964473L13.767218953777672,72.65860376133305z" style="fill:rgb(151,76,241)"/><path d="M51.96675007424284,-31.921106990679238L100.21438544487535,-14.864305520276819L80.44935729317913,-49.135892091791206z" style="fill:rgb(175,141,244)"/><path d="M57.04176483832219,-81.2390206269002L51.96675007424284,-31.921106990679238L80.44935729317913,-49.135892091791206z" style="fill:rgb(162,163,244)"/><path d="M-41.45243468212625,-74.1307776147295L-67.67762706451092,-64.85645212662145L-60.40351362666074,-27.914526605045104z" style="fill:rgb(96,159,247)"/><path d="M-73.0370451117942,57.888063009346155L-23.759786394380153,84.91795102638619L-37.77489228455485,49.27491791117426z" style="fill:rgb(96,82,242)"/><path d="M1.9763451823614184,-51.77196644566884L9.398118402027611,-96.98378603860898L-15.297789187827808,-85.03427976632493z" style="fill:rgb(132,174,246)"/><path d="M51.96675007424284,-31.921106990679238L70.35726361816488,3.850090420038987L100.21438544487535,-14.864305520276819z" style="fill:rgb(175,141,244)"/><path d="M57.04176483832219,-81.2390206269002L31.228196562981967,-66.20188069219886L51.96675007424284,-31.921106990679238z" style="fill:rgb(162,163,244)"/><path d="M-50.24545237522194,10.90303765020531L-83.4346693109138,19.501287243760288L-73.0370451117942,57.888063009346155z" style="fill:rgb(89,105,247)"/><path d="M-50.24545237522194,10.90303765020531L-90.07120118480447,-19.78410860810294L-83.4346693109138,19.501287243760288z" style="fill:rgb(83,129,246)"/><path d="M1.9763451823614184,-51.77196644566884L31.228196562981967,-66.20188069219886L9.398118402027611,-96.98378603860898z" style="fill:rgb(132,174,246)"/><path d="M1.9763451823614184,-51.77196644566884L-15.297789187827808,-85.03427976632493L-41.45243468212625,-74.1307776147295z" style="fill:rgb(114,166,248)"/><path d="M-37.77489228455485,49.27491791117426L-23.759786394380153,84.91795102638619L13.767218953777672,72.65860376133305z" style="fill:rgb(119,89,248)"/><path d="M85.33276703637536,38.97353152516238L36.08655413668421,21.46443850367519L50.86053765920907,57.03434960964473zM85.33276703637536,38.97353152516238L70.35726361816488,3.850090420038987L36.08655413668421,21.46443850367519z" style="fill:rgb(165,108,247)"/><path d="M-50.24545237522194,10.90303765020531L-60.40351362666074,-27.914526605045104L-90.07120118480447,-19.78410860810294z" style="fill:rgb(83,129,246)"/><path d="M-50.24545237522194,10.90303765020531L-73.0370451117942,57.888063009346155L-37.77489228455485,49.27491791117426z" style="fill:rgb(89,105,247)"/><path d="M-41.45243468212625,-74.1307776147295L-60.40351362666074,-27.914526605045104L-29.147072634385562,-38.76542173851342z" style="fill:rgb(96,159,247)"/><path d="M50.86053765920907,57.03434960964473L-0.6788622951721276,36.913915630418565L13.767218953777672,72.65860376133305z" style="fill:rgb(143,98,250)"/><path d="M1.9763451823614184,-51.77196644566884L-41.45243468212625,-74.1307776147295L-29.147072634385562,-38.76542173851342z" style="fill:rgb(114,166,248)"/><path d="M-37.77489228455485,49.27491791117426L13.767218953777672,72.65860376133305L-0.6788622951721276,36.913915630418565z" style="fill:rgb(119,89,248)"/><path d="M19.45933381971106,-15.549582524185126L51.96675007424284,-31.921106990679238L31.228196562981967,-66.20188069219886z" style="fill:rgb(144,152,251)"/><path d="M-50.24545237522194,10.90303765020531L-29.147072634385562,-38.76542173851342L-60.40351362666074,-27.914526605045104z" style="fill:rgb(103,135,252)"/><path d="M19.45933381971106,-15.549582524185126L70.35726361816488,3.850090420038987L51.96675007424284,-31.921106990679238z" style="fill:rgb(155,130,251)"/><path d="M50.86053765920907,57.03434960964473L36.08655413668421,21.46443850367519L-0.6788622951721276,36.913915630418565z" style="fill:rgb(143,98,250)"/><path d="M19.45933381971106,-15.549582524185126L31.228196562981967,-66.20188069219886L1.9763451823614184,-51.77196644566884z" style="fill:rgb(144,152,251)"/><path d="M-50.24545237522194,10.90303765020531L-37.77489228455485,49.27491791117426L-0.6788622951721276,36.913915630418565z" style="fill:rgb(111,112,253)"/><path d="M19.45933381971106,-15.549582524185126L36.08655413668421,21.46443850367519L70.35726361816488,3.850090420038987z" style="fill:rgb(155,130,251)"/><path d="M19.45933381971106,-15.549582524185126L1.9763451823614184,-51.77196644566884L-29.147072634385562,-38.76542173851342z" style="fill:rgb(124,143,253)"/><path d="M-50.24545237522194,10.90303765020531L-15.280450208576294,-0.9928858539630868L-29.147072634385562,-38.76542173851342z" style="fill:rgb(103,135,252)"/><path d="M-50.24545237522194,10.90303765020531L-0.6788622951721276,36.913915630418565L-15.280450208576294,-0.9928858539630868z" style="fill:rgb(111,112,253)"/><path d="M19.45933381971106,-15.549582524185126L-0.6788622951721276,36.913915630418565L36.08655413668421,21.46443850367519z" style="fill:rgb(133,120,254)"/><path d="M19.45933381971106,-15.549582524185126L-29.147072634385562,-38.76542173851342L-15.280450208576294,-0.9928858539630868z" style="fill:rgb(124,143,253)"/><path d="M19.45933381971106,-15.549582524185126L-15.280450208576294,-0.9928858539630868L-0.6788622951721276,36.913915630418565z" style="fill:rgb(133,120,254)"/></svg>