<?xml version="1.0" encoding="UTF-8"?>
<!-- Generated by jsxcad -->
<!DOCTYPE svg PUBLIC "-//W3C//DTD SVG 1.1 Tiny//EN" "http://www.w3.org/Graphics/SVG/1.1/DTD/svg11-tiny.dtd">
<svg baseProfile="tiny" height="20 mm" width="20 mm" viewBox="0 0 20 20" version="1.1" stroke="black" stroke-width=".1" fill="none" xmlns="http://www.w3.org/2000/svg">
<path d="M18.3147 4.4443 L18.1549 4.551 L16.9352 3.0648 z"/>
<path d="M18.3147 4.4443 L16.9352 3.0648 L17.0711 2.9289 z"/>
<path d="M19.2388 6.1732 L19.0613 6.2467 L18.1549 4.551 z"/>
<path d="M19.2388 6.1732 L18.1549 4.551 L18.3147 4.4443 z"/>
<path d="M8.0866 0.3806 L8.0491 0.1921 L10 0 z"/>
<path d="M8.0866 0.3806 L10 0 L10 0.1921 z"/>
<path d="M6.1732 0.7612 L8.0491 0.1921 L8.0866 0.3806 z"/>
<path d="M6.1732 0.7612 L8.0866 0.3806 L6.2467 0.9387 z"/>
<path d="M4.551 1.8451 L3.0648 3.0648 L2.9289 2.9289 z"/>
<path d="M4.551 1.8451 L2.9289 2.9289 L4.4443 1.6853 z"/>
<path d="M4.551 1.8451 L4.4443 1.6853 L6.1732 0.7612 z"/>
<path d="M4.551 1.8451 L6.1732 0.7612 L6.2467 0.9387 z"/>
<path d="M10 0.1921 L10 0 L8.0491 0.1921 z"/>
<path d="M10 0.1921 L8.0491 0.1921 L8.0866 0.3806 z"/>
<path d="M11.9134 0.3806 L10 0.1921 L10 0 z"/>
<path d="M11.9134 0.3806 L10 0 L11.9509 0.1921 z"/>
<path d="M15.449 1.8451 L15.5557 1.6853 L17.0711 2.9289 z"/>
<path d="M15.449 1.8451 L17.0711 2.9289 L16.9352 3.0648 z"/>
<path d="M19.6194 8.0866 L19.0613 6.2467 L19.2388 6.1732 z"/>
<path d="M19.6194 8.0866 L19.2388 6.1732 L19.8079 8.0491 z"/>
<path d="M19.6194 8.0866 L19.8079 8.0491 L20 10 z"/>
<path d="M19.6194 8.0866 L20 10 L19.8079 10 z"/>
<path d="M10 0.7612 L10 0.1921 L11.9134 0.3806 z"/>
<path d="M10 0.7612 L11.9134 0.3806 L11.8024 0.9387 z"/>
<path d="M6.2467 0.9387 L8.0866 0.3806 L8.0491 0.1921 z"/>
<path d="M6.2467 0.9387 L8.0491 0.1921 L6.1732 0.7612 z"/>
<path d="M6.2467 0.9387 L6.1732 0.7612 L4.4443 1.6853 z"/>
<path d="M6.2467 0.9387 L4.4443 1.6853 L4.551 1.8451 z"/>
<path d="M3.0866 5.3806 L2.3182 4.8672 L3.4672 3.4672 z"/>
<path d="M3.0866 5.3806 L3.4672 3.4672 L4.1206 4.1206 z"/>
<path d="M5 5 L4.1206 6.0715 L3.0866 5.3806 z"/>
<path d="M5 5 L3.0866 5.3806 L4.1206 4.1206 z"/>
<path d="M0.3806 8.0866 L0.1921 8.0491 L0.7612 6.1732 z"/>
<path d="M0.3806 8.0866 L0.7612 6.1732 L0.9387 6.2467 z"/>
<path d="M11.6221 1.8451 L11.8024 0.9387 L13.5355 1.4645 z"/>
<path d="M11.6221 1.8451 L13.5355 1.4645 L13.1819 2.3182 z"/>
<path d="M11.9509 19.8079 L11.9134 19.6194 L10 19.8079 z"/>
<path d="M11.9509 19.8079 L10 19.8079 L10 20 z"/>
<path d="M11.9509 19.8079 L10 20 L10 19.8079 z"/>
<path d="M11.9509 19.8079 L10 19.8079 L11.9134 19.6194 z"/>
<path d="M5 15 L4.1206 13.9285 L3.0866 14.6194 z"/>
<path d="M5 15 L3.0866 14.6194 L4.1206 15.8794 z"/>
<path d="M8.0866 19.6194 L8.0491 19.8079 L10 20 z"/>
<path d="M8.0866 19.6194 L10 20 L10 19.8079 z"/>
<path d="M4.551 18.1549 L4.8672 17.6818 L6.4645 18.5355 z"/>
<path d="M4.551 18.1549 L6.4645 18.5355 L6.2467 19.0613 z"/>
<path d="M13.7533 19.0613 L13.8268 19.2388 L11.9509 19.8079 z"/>
<path d="M13.7533 19.0613 L11.9509 19.8079 L11.9134 19.6194 z"/>
<path d="M1.6853 4.4443 L0.7612 6.1732 L0.9387 6.2467 z"/>
<path d="M1.6853 4.4443 L0.9387 6.2467 L1.8451 4.551 z"/>
<path d="M3.0648 3.0648 L4.551 1.8451 L4.4443 1.6853 z"/>
<path d="M3.0648 3.0648 L4.4443 1.6853 L2.9289 2.9289 z"/>
<path d="M3.0648 3.0648 L2.9289 2.9289 L1.6853 4.4443 z"/>
<path d="M3.0648 3.0648 L1.6853 4.4443 L1.8451 4.551 z"/>
<path d="M3.0648 3.0648 L3.4672 3.4672 L4.8672 2.3182 z"/>
<path d="M3.0648 3.0648 L4.8672 2.3182 L4.551 1.8451 z"/>
<path d="M2.3182 4.8672 L3.4672 3.4672 L3.0648 3.0648 z"/>
<path d="M2.3182 4.8672 L3.0648 3.0648 L1.8451 4.551 z"/>
<path d="M2.3182 4.8672 L1.8451 4.551 L0.9387 6.2467 z"/>
<path d="M2.3182 4.8672 L0.9387 6.2467 L1.4645 6.4645 z"/>
<path d="M2.3182 4.8672 L3.0866 5.3806 L4.1206 4.1206 z"/>
<path d="M2.3182 4.8672 L4.1206 4.1206 L3.4672 3.4672 z"/>
<path d="M13.7533 0.9387 L11.9134 0.3806 L11.9509 0.1921 z"/>
<path d="M13.7533 0.9387 L11.9509 0.1921 L13.8268 0.7612 z"/>
<path d="M13.7533 0.9387 L13.8268 0.7612 L15.5557 1.6853 z"/>
<path d="M13.7533 0.9387 L15.5557 1.6853 L15.449 1.8451 z"/>
<path d="M13.7533 0.9387 L13.5355 1.4645 L11.8024 0.9387 z"/>
<path d="M13.7533 0.9387 L11.8024 0.9387 L11.9134 0.3806 z"/>
<path d="M15.1328 2.3182 L13.5355 1.4645 L13.7533 0.9387 z"/>
<path d="M15.1328 2.3182 L13.7533 0.9387 L15.449 1.8451 z"/>
<path d="M15.1328 2.3182 L15.449 1.8451 L16.9352 3.0648 z"/>
<path d="M15.1328 2.3182 L16.9352 3.0648 L16.5328 3.4672 z"/>
<path d="M15.1328 2.3182 L16.5328 3.4672 L15.8794 4.1206 z"/>
<path d="M15.1328 2.3182 L15.8794 4.1206 L14.6194 3.0866 z"/>
<path d="M15.1328 2.3182 L14.6194 3.0866 L13.1819 2.3182 z"/>
<path d="M15.1328 2.3182 L13.1819 2.3182 L13.5355 1.4645 z"/>
<path d="M18.5355 6.4645 L19.0613 6.2467 L19.6194 8.0866 z"/>
<path d="M18.5355 6.4645 L19.6194 8.0866 L19.0613 8.1976 z"/>
<path d="M18.1549 8.3779 L17.6818 6.8181 L18.5355 6.4645 z"/>
<path d="M18.1549 8.3779 L18.5355 6.4645 L19.0613 8.1976 z"/>
<path d="M19.2388 10 L18.3147 10 L18.1549 8.3779 z"/>
<path d="M19.2388 10 L18.1549 8.3779 L19.0613 8.1976 z"/>
<path d="M19.2388 10 L19.0613 8.1976 L19.6194 8.0866 z"/>
<path d="M19.2388 10 L19.6194 8.0866 L19.8079 10 z"/>
<path d="M15 5 L13.9285 4.1206 L14.6194 3.0866 z"/>
<path d="M15 5 L14.6194 3.0866 L15.8794 4.1206 z"/>
<path d="M16.9134 5.3806 L17.6818 6.8181 L16.5328 7.294 z"/>
<path d="M16.9134 5.3806 L16.5328 7.294 L15.8794 6.0715 z"/>
<path d="M16.9134 5.3806 L15.8794 6.0715 L15 5 z"/>
<path d="M16.9134 5.3806 L15 5 L15.8794 4.1206 z"/>
<path d="M19.8079 10 L19.6194 11.9134 L19.8079 11.9509 z"/>
<path d="M19.8079 10 L19.8079 11.9509 L20 10 z"/>
<path d="M19.8079 10 L20 10 L19.8079 8.0491 z"/>
<path d="M19.8079 10 L19.8079 8.0491 L19.6194 8.0866 z"/>
<path d="M19.0613 11.8024 L18.5355 13.5355 L19.0613 13.7533 z"/>
<path d="M19.0613 11.8024 L19.0613 13.7533 L19.6194 11.9134 z"/>
<path d="M19.0613 11.8024 L19.6194 11.9134 L19.8079 10 z"/>
<path d="M19.0613 11.8024 L19.8079 10 L19.2388 10 z"/>
<path d="M6.4645 1.4645 L6.2467 0.9387 L4.551 1.8451 z"/>
<path d="M6.4645 1.4645 L4.551 1.8451 L4.8672 2.3182 z"/>
<path d="M1.8451 4.551 L3.0648 3.0648 L3.4672 3.4672 z"/>
<path d="M1.8451 4.551 L3.4672 3.4672 L2.3182 4.8672 z"/>
<path d="M1.8451 4.551 L0.9387 6.2467 L0.7612 6.1732 z"/>
<path d="M1.8451 4.551 L0.7612 6.1732 L1.6853 4.4443 z"/>
<path d="M1.8451 4.551 L1.6853 4.4443 L2.9289 2.9289 z"/>
<path d="M1.8451 4.551 L2.9289 2.9289 L3.0648 3.0648 z"/>
<path d="M1.4645 6.4645 L0.9387 8.1976 L0.3806 8.0866 z"/>
<path d="M1.4645 6.4645 L0.3806 8.0866 L0.9387 6.2467 z"/>
<path d="M1.4645 6.4645 L0.9387 6.2467 L1.8451 4.551 z"/>
<path d="M1.4645 6.4645 L1.8451 4.551 L2.3182 4.8672 z"/>
<path d="M1.4645 6.4645 L2.3182 4.8672 L3.0866 5.3806 z"/>
<path d="M1.4645 6.4645 L3.0866 5.3806 L2.3182 6.8181 z"/>
<path d="M8.1976 0.9387 L6.4645 1.4645 L6.2467 0.9387 z"/>
<path d="M8.1976 0.9387 L6.2467 0.9387 L8.0866 0.3806 z"/>
<path d="M8.1976 0.9387 L8.0866 0.3806 L10 0.1921 z"/>
<path d="M8.1976 0.9387 L10 0.1921 L10 0.7612 z"/>
<path d="M6.8181 2.3182 L6.4645 1.4645 L8.1976 0.9387 z"/>
<path d="M6.8181 2.3182 L8.1976 0.9387 L8.3779 1.8451 z"/>
<path d="M6.8181 2.3182 L8.3779 1.8451 L8.6205 3.0648 z"/>
<path d="M6.8181 2.3182 L8.6205 3.0648 L7.294 3.4672 z"/>
<path d="M8.9161 4.551 L7.8739 4.8672 L7.294 3.4672 z"/>
<path d="M8.9161 4.551 L7.294 3.4672 L8.6205 3.0648 z"/>
<path d="M13.7533 0.9387 L15.449 1.8451 L15.5557 1.6853 z"/>
<path d="M13.7533 0.9387 L15.5557 1.6853 L13.8268 0.7612 z"/>
<path d="M11.3795 8.6205 L10 10 L11.0839 8.3779 z"/>
<path d="M11.3795 8.6205 L12.706 7.294 L13.1819 7.8739 z"/>
<path d="M11.3795 8.6205 L13.1819 7.8739 L11.6221 8.9161 z"/>
<path d="M11.3795 8.6205 L11.6221 8.9161 L10 10 z"/>
<path d="M11.0839 4.551 L12.1261 4.8672 L11.4645 6.4645 z"/>
<path d="M11.0839 4.551 L11.4645 6.4645 L10.7466 6.2467 z"/>
<path d="M12.706 3.4672 L13.9285 4.1206 L13.0866 5.3806 z"/>
<path d="M12.706 3.4672 L13.0866 5.3806 L12.1261 4.8672 z"/>
<path d="M12.706 3.4672 L12.1261 4.8672 L11.0839 4.551 z"/>
<path d="M12.706 3.4672 L11.0839 4.551 L11.3795 3.0648 z"/>
<path d="M12.706 3.4672 L11.3795 3.0648 L11.6221 1.8451 z"/>
<path d="M12.706 3.4672 L11.6221 1.8451 L13.1819 2.3182 z"/>
<path d="M12.706 3.4672 L13.1819 2.3182 L14.6194 3.0866 z"/>
<path d="M12.706 3.4672 L14.6194 3.0866 L13.9285 4.1206 z"/>
<path d="M0.1921 10 L0.3806 8.0866 L0.9387 8.1976 z"/>
<path d="M0.1921 10 L0.9387 8.1976 L0.7612 10 z"/>
<path d="M0.1921 10 L0 10 L0.1921 8.0491 z"/>
<path d="M0.1921 10 L0.1921 8.0491 L0.3806 8.0866 z"/>
<path d="M0.9387 11.8024 L1.4645 13.5355 L0.9387 13.7533 z"/>
<path d="M0.9387 11.8024 L0.9387 13.7533 L0.3806 11.9134 z"/>
<path d="M0.9387 11.8024 L0.3806 11.9134 L0.1921 10 z"/>
<path d="M0.9387 11.8024 L0.1921 10 L0.7612 10 z"/>
<path d="M10 1.6853 L8.3779 1.8451 L8.1976 0.9387 z"/>
<path d="M10 1.6853 L8.1976 0.9387 L10 0.7612 z"/>
<path d="M10 1.6853 L10 0.7612 L11.8024 0.9387 z"/>
<path d="M10 1.6853 L11.8024 0.9387 L11.6221 1.8451 z"/>
<path d="M0.1921 11.9509 L0 10 L0.1921 10 z"/>
<path d="M0.1921 11.9509 L0.1921 10 L0.3806 11.9134 z"/>
<path d="M2.3182 13.1819 L1.4645 13.5355 L2.3182 15.1328 z"/>
<path d="M2.3182 13.1819 L2.3182 15.1328 L3.0866 14.6194 z"/>
<path d="M13.7533 19.0613 L11.9134 19.6194 L11.9509 19.8079 z"/>
<path d="M13.7533 19.0613 L11.9509 19.8079 L13.8268 19.2388 z"/>
<path d="M13.7533 19.0613 L13.8268 19.2388 L15.5557 18.3147 z"/>
<path d="M13.7533 19.0613 L15.5557 18.3147 L15.449 18.1549 z"/>
<path d="M10 19.2388 L10 19.8079 L11.9134 19.6194 z"/>
<path d="M10 19.2388 L11.9134 19.6194 L11.8024 19.0613 z"/>
<path d="M10 19.2388 L11.8024 19.0613 L11.6221 18.1549 z"/>
<path d="M10 19.2388 L11.6221 18.1549 L10 18.3147 z"/>
<path d="M12.1261 13.1819 L13.0866 14.6194 L13.9285 13.9285 z"/>
<path d="M12.1261 13.1819 L13.9285 13.9285 L12.706 12.706 z"/>
<path d="M5.3806 13.0866 L6.0715 13.9285 L7.294 12.706 z"/>
<path d="M5.3806 13.0866 L7.294 12.706 L6.8181 12.1261 z"/>
<path d="M5.3806 13.0866 L4.1206 13.9285 L5 15 z"/>
<path d="M5.3806 13.0866 L5 15 L6.0715 13.9285 z"/>
<path d="M6.0715 15.8794 L5 15 L4.1206 15.8794 z"/>
<path d="M6.0715 15.8794 L4.1206 15.8794 L5.3806 16.9134 z"/>
<path d="M6.0715 15.8794 L5.3806 16.9134 L6.8181 17.6818 z"/>
<path d="M6.0715 15.8794 L6.8181 17.6818 L7.294 16.5328 z"/>
<path d="M8.6205 16.9352 L8.9161 15.449 L7.8739 15.1328 z"/>
<path d="M8.6205 16.9352 L7.8739 15.1328 L7.294 16.5328 z"/>
<path d="M10 15.5557 L8.9161 15.449 L8.6205 16.9352 z"/>
<path d="M10 15.5557 L8.6205 16.9352 L10 17.0711 z"/>
<path d="M11.3795 16.9352 L10 17.0711 L10 18.3147 z"/>
<path d="M11.3795 16.9352 L10 18.3147 L11.6221 18.1549 z"/>
<path d="M1.8451 15.449 L0.9387 13.7533 L1.4645 13.5355 z"/>
<path d="M1.8451 15.449 L1.4645 13.5355 L2.3182 15.1328 z"/>
<path d="M3.4672 16.5328 L4.8672 17.6818 L4.551 18.1549 z"/>
<path d="M3.4672 16.5328 L4.551 18.1549 L3.0648 16.9352 z"/>
<path d="M3.4672 16.5328 L3.0648 16.9352 L1.8451 15.449 z"/>
<path d="M3.4672 16.5328 L1.8451 15.449 L2.3182 15.1328 z"/>
<path d="M3.4672 16.5328 L4.1206 15.8794 L5.3806 16.9134 z"/>
<path d="M3.4672 16.5328 L5.3806 16.9134 L4.8672 17.6818 z"/>
<path d="M13.9285 6.0715 L13.0866 5.3806 L13.9285 4.1206 z"/>
<path d="M13.9285 6.0715 L13.9285 4.1206 L15 5 z"/>
<path d="M15 15 L15.8794 13.9285 L16.9134 14.6194 z"/>
<path d="M15 15 L16.9134 14.6194 L15.8794 15.8794 z"/>
<path d="M8.0866 19.6194 L10 19.8079 L10 20 z"/>
<path d="M8.0866 19.6194 L10 20 L8.0491 19.8079 z"/>
<path d="M8.6205 16.9352 L10 17.0711 L10 18.3147 z"/>
<path d="M8.6205 16.9352 L10 18.3147 L8.3779 18.1549 z"/>
<path d="M2.9289 17.0711 L3.0648 16.9352 L4.551 18.1549 z"/>
<path d="M2.9289 17.0711 L4.551 18.1549 L4.4443 18.3147 z"/>
<path d="M2.9289 17.0711 L1.6853 15.5557 L1.8451 15.449 z"/>
<path d="M2.9289 17.0711 L1.8451 15.449 L3.0648 16.9352 z"/>
<path d="M4.551 18.1549 L3.0648 16.9352 L2.9289 17.0711 z"/>
<path d="M4.551 18.1549 L2.9289 17.0711 L4.4443 18.3147 z"/>
<path d="M6.1732 19.2388 L6.2467 19.0613 L4.551 18.1549 z"/>
<path d="M6.1732 19.2388 L4.551 18.1549 L4.4443 18.3147 z"/>
<path d="M6.1732 19.2388 L4.4443 18.3147 L4.551 18.1549 z"/>
<path d="M6.1732 19.2388 L4.551 18.1549 L6.2467 19.0613 z"/>
<path d="M6.1732 19.2388 L6.2467 19.0613 L8.0866 19.6194 z"/>
<path d="M6.1732 19.2388 L8.0866 19.6194 L8.0491 19.8079 z"/>
<path d="M6.1732 19.2388 L8.0491 19.8079 L8.0866 19.6194 z"/>
<path d="M6.1732 19.2388 L8.0866 19.6194 L6.2467 19.0613 z"/>
<path d="M6.4645 18.5355 L6.8181 17.6818 L5.3806 16.9134 z"/>
<path d="M6.4645 18.5355 L5.3806 16.9134 L4.8672 17.6818 z"/>
<path d="M6.4645 18.5355 L4.8672 17.6818 L4.551 18.1549 z"/>
<path d="M6.4645 18.5355 L4.551 18.1549 L6.2467 19.0613 z"/>
<path d="M6.8181 17.6818 L6.4645 18.5355 L4.8672 17.6818 z"/>
<path d="M6.8181 17.6818 L4.8672 17.6818 L5.3806 16.9134 z"/>
<path d="M6.8181 17.6818 L7.294 16.5328 L8.6205 16.9352 z"/>
<path d="M6.8181 17.6818 L8.6205 16.9352 L8.3779 18.1549 z"/>
<path d="M11.8024 19.0613 L13.5355 18.5355 L13.7533 19.0613 z"/>
<path d="M11.8024 19.0613 L13.7533 19.0613 L11.9134 19.6194 z"/>
<path d="M11.8024 19.0613 L11.9134 19.6194 L10 19.8079 z"/>
<path d="M11.8024 19.0613 L10 19.8079 L10 19.2388 z"/>
<path d="M14.6194 16.9134 L15.1328 17.6818 L13.5355 18.5355 z"/>
<path d="M14.6194 16.9134 L13.5355 18.5355 L13.1819 17.6818 z"/>
<path d="M14.6194 16.9134 L13.1819 17.6818 L12.706 16.5328 z"/>
<path d="M14.6194 16.9134 L12.706 16.5328 L13.9285 15.8794 z"/>
<path d="M14.6194 16.9134 L13.9285 15.8794 L15 15 z"/>
<path d="M14.6194 16.9134 L15 15 L15.8794 15.8794 z"/>
<path d="M11.8024 9.2534 L11.6221 8.9161 L13.1819 7.8739 z"/>
<path d="M11.8024 9.2534 L13.1819 7.8739 L13.5355 8.5355 z"/>
<path d="M11.8024 9.2534 L10 10 L11.6221 8.9161 z"/>
<path d="M11.8024 10.7466 L11.6221 11.0839 L10 10 z"/>
<path d="M13.0866 14.6194 L12.1261 15.1328 L11.4645 13.5355 z"/>
<path d="M13.0866 14.6194 L11.4645 13.5355 L12.1261 13.1819 z"/>
<path d="M13.0866 14.6194 L13.9285 13.9285 L15 15 z"/>
<path d="M13.0866 14.6194 L15 15 L13.9285 15.8794 z"/>
<path d="M13.0866 14.6194 L13.9285 15.8794 L12.706 16.5328 z"/>
<path d="M13.0866 14.6194 L12.706 16.5328 L12.1261 15.1328 z"/>
<path d="M13.1819 12.1261 L11.6221 11.0839 L11.8024 10.7466 z"/>
<path d="M13.1819 12.1261 L11.8024 10.7466 L13.5355 11.4645 z"/>
<path d="M4.551 11.0839 L6.2467 10.7466 L6.4645 11.4645 z"/>
<path d="M4.551 11.0839 L6.4645 11.4645 L4.8672 12.1261 z"/>
<path d="M3.0866 14.6194 L4.1206 15.8794 L3.4672 16.5328 z"/>
<path d="M3.0866 14.6194 L3.4672 16.5328 L2.3182 15.1328 z"/>
<path d="M5 15 L4.1206 15.8794 L3.0866 14.6194 z"/>
<path d="M5 15 L3.0866 14.6194 L4.1206 13.9285 z"/>
<path d="M5.3806 13.0866 L4.8672 12.1261 L6.4645 11.4645 z"/>
<path d="M5.3806 13.0866 L6.4645 11.4645 L6.8181 12.1261 z"/>
<path d="M5.3806 13.0866 L6.8181 12.1261 L7.294 12.706 z"/>
<path d="M5.3806 13.0866 L7.294 12.706 L6.0715 13.9285 z"/>
<path d="M5.3806 13.0866 L6.0715 13.9285 L5 15 z"/>
<path d="M5.3806 13.0866 L5 15 L4.1206 13.9285 z"/>
<path d="M5.3806 13.0866 L4.1206 13.9285 L3.4672 12.706 z"/>
<path d="M5.3806 13.0866 L3.4672 12.706 L4.8672 12.1261 z"/>
<path d="M16.9352 8.6205 L16.5328 7.294 L17.6818 6.8181 z"/>
<path d="M16.9352 8.6205 L17.6818 6.8181 L18.1549 8.3779 z"/>
<path d="M17.6818 13.1819 L16.9134 14.6194 L15.8794 13.9285 z"/>
<path d="M17.6818 13.1819 L15.8794 13.9285 L16.5328 12.706 z"/>
<path d="M19.6194 11.9134 L19.8079 10 L20 10 z"/>
<path d="M19.6194 11.9134 L20 10 L19.8079 11.9509 z"/>
<path d="M17.6818 4.8672 L18.5355 6.4645 L17.6818 6.8181 z"/>
<path d="M17.6818 4.8672 L17.6818 6.8181 L16.9134 5.3806 z"/>
<path d="M17.6818 4.8672 L16.9134 5.3806 L15.8794 4.1206 z"/>
<path d="M17.6818 4.8672 L15.8794 4.1206 L16.5328 3.4672 z"/>
<path d="M17.6818 4.8672 L16.5328 3.4672 L16.9352 3.0648 z"/>
<path d="M17.6818 4.8672 L16.9352 3.0648 L18.1549 4.551 z"/>
<path d="M17.6818 4.8672 L18.1549 4.551 L19.0613 6.2467 z"/>
<path d="M17.6818 4.8672 L19.0613 6.2467 L18.5355 6.4645 z"/>
<path d="M19.2388 13.8268 L19.8079 11.9509 L19.6194 11.9134 z"/>
<path d="M19.2388 13.8268 L19.6194 11.9134 L19.0613 13.7533 z"/>
<path d="M16.9352 16.9352 L15.449 18.1549 L15.5557 18.3147 z"/>
<path d="M16.9352 16.9352 L15.5557 18.3147 L17.0711 17.0711 z"/>
<path d="M15 15 L13.9285 13.9285 L13.0866 14.6194 z"/>
<path d="M15 15 L13.0866 14.6194 L13.9285 15.8794 z"/>
<path d="M15 15 L13.9285 15.8794 L14.6194 16.9134 z"/>
<path d="M15 15 L14.6194 16.9134 L15.8794 15.8794 z"/>
<path d="M17.6818 15.1328 L16.9134 14.6194 L15.8794 15.8794 z"/>
<path d="M17.6818 15.1328 L15.8794 15.8794 L16.5328 16.5328 z"/>
<path d="M17.6818 15.1328 L16.5328 16.5328 L16.9352 16.9352 z"/>
<path d="M17.6818 15.1328 L16.9352 16.9352 L18.1549 15.449 z"/>
<path d="M17.6818 15.1328 L18.1549 15.449 L19.0613 13.7533 z"/>
<path d="M17.6818 15.1328 L19.0613 13.7533 L18.5355 13.5355 z"/>
<path d="M17.6818 13.1819 L16.9134 14.6194 L17.6818 15.1328 z"/>
<path d="M17.6818 13.1819 L17.6818 15.1328 L18.5355 13.5355 z"/>
<path d="M16.9352 3.0648 L18.1549 4.551 L18.3147 4.4443 z"/>
<path d="M16.9352 3.0648 L18.3147 4.4443 L17.0711 2.9289 z"/>
<path d="M16.9352 3.0648 L17.0711 2.9289 L15.5557 1.6853 z"/>
<path d="M16.9352 3.0648 L15.5557 1.6853 L15.449 1.8451 z"/>
<path d="M19.0613 6.2467 L19.6194 8.0866 L19.8079 8.0491 z"/>
<path d="M19.0613 6.2467 L19.8079 8.0491 L19.2388 6.1732 z"/>
<path d="M19.0613 6.2467 L19.2388 6.1732 L18.3147 4.4443 z"/>
<path d="M19.0613 6.2467 L18.3147 4.4443 L18.1549 4.551 z"/>
<path d="M4.8672 2.3182 L3.4672 3.4672 L3.0648 3.0648 z"/>
<path d="M4.8672 2.3182 L3.0648 3.0648 L4.551 1.8451 z"/>
<path d="M4.8672 2.3182 L4.551 1.8451 L6.2467 0.9387 z"/>
<path d="M4.8672 2.3182 L6.2467 0.9387 L6.4645 1.4645 z"/>
<path d="M11.9134 0.3806 L13.7533 0.9387 L13.8268 0.7612 z"/>
<path d="M11.9134 0.3806 L13.8268 0.7612 L11.9509 0.1921 z"/>
<path d="M11.9134 0.3806 L11.9509 0.1921 L10 0 z"/>
<path d="M11.9134 0.3806 L10 0 L10 0.1921 z"/>
<path d="M17.6818 4.8672 L18.5355 6.4645 L19.0613 6.2467 z"/>
<path d="M17.6818 4.8672 L19.0613 6.2467 L18.1549 4.551 z"/>
<path d="M17.6818 4.8672 L18.1549 4.551 L16.9352 3.0648 z"/>
<path d="M17.6818 4.8672 L16.9352 3.0648 L16.5328 3.4672 z"/>
<path d="M17.6818 4.8672 L16.9134 5.3806 L17.6818 6.8181 z"/>
<path d="M17.6818 4.8672 L17.6818 6.8181 L18.5355 6.4645 z"/>
<path d="M8.1976 0.9387 L6.4645 1.4645 L6.8181 2.3182 z"/>
<path d="M8.1976 0.9387 L6.8181 2.3182 L8.3779 1.8451 z"/>
<path d="M8.1976 0.9387 L10 0.7612 L10 0.1921 z"/>
<path d="M8.1976 0.9387 L10 0.1921 L8.0866 0.3806 z"/>
<path d="M8.1976 0.9387 L8.0866 0.3806 L6.2467 0.9387 z"/>
<path d="M8.1976 0.9387 L6.2467 0.9387 L6.4645 1.4645 z"/>
<path d="M11.8024 0.9387 L13.5355 1.4645 L13.7533 0.9387 z"/>
<path d="M11.8024 0.9387 L13.7533 0.9387 L11.9134 0.3806 z"/>
<path d="M11.8024 0.9387 L11.9134 0.3806 L10 0.1921 z"/>
<path d="M11.8024 0.9387 L10 0.1921 L10 0.7612 z"/>
<path d="M10 1.6853 L11.6221 1.8451 L11.8024 0.9387 z"/>
<path d="M10 1.6853 L11.8024 0.9387 L10 0.7612 z"/>
<path d="M10 1.6853 L10 0.7612 L8.1976 0.9387 z"/>
<path d="M10 1.6853 L8.1976 0.9387 L8.3779 1.8451 z"/>
<path d="M6.0715 6.0715 L7.294 7.294 L6.8181 7.8739 z"/>
<path d="M6.0715 6.0715 L6.8181 7.8739 L5.3806 6.9134 z"/>
<path d="M6.0715 6.0715 L5.3806 6.9134 L4.1206 6.0715 z"/>
<path d="M6.0715 6.0715 L4.1206 6.0715 L5 5 z"/>
<path d="M3.4672 7.294 L2.3182 6.8181 L3.0866 5.3806 z"/>
<path d="M3.4672 7.294 L3.0866 5.3806 L4.1206 6.0715 z"/>
<path d="M1.8451 8.3779 L2.3182 6.8181 L3.4672 7.294 z"/>
<path d="M1.8451 8.3779 L3.4672 7.294 L3.0648 8.6205 z"/>
<path d="M1.8451 8.3779 L1.6853 10 L0.7612 10 z"/>
<path d="M1.8451 8.3779 L0.7612 10 L0.9387 8.1976 z"/>
<path d="M1.8451 8.3779 L0.9387 8.1976 L1.4645 6.4645 z"/>
<path d="M1.8451 8.3779 L1.4645 6.4645 L2.3182 6.8181 z"/>
<path d="M9.2534 8.1976 L9.6194 8.0866 L10 10 z"/>
<path d="M9.2534 6.2467 L9.6194 8.0866 L9.2534 8.1976 z"/>
<path d="M9.2534 6.2467 L9.2534 8.1976 L8.5355 6.4645 z"/>
<path d="M9.2534 6.2467 L8.5355 6.4645 L7.8739 4.8672 z"/>
<path d="M9.2534 6.2467 L7.8739 4.8672 L8.9161 4.551 z"/>
<path d="M12.1261 6.8181 L11.4645 6.4645 L12.1261 4.8672 z"/>
<path d="M12.1261 6.8181 L12.1261 4.8672 L13.0866 5.3806 z"/>
<path d="M12.1261 6.8181 L13.0866 5.3806 L13.9285 6.0715 z"/>
<path d="M12.1261 6.8181 L13.9285 6.0715 L12.706 7.294 z"/>
<path d="M12.1261 6.8181 L12.706 7.294 L11.3795 8.6205 z"/>
<path d="M12.1261 6.8181 L11.3795 8.6205 L11.0839 8.3779 z"/>
<path d="M5.3806 3.0866 L6.8181 2.3182 L7.294 3.4672 z"/>
<path d="M5.3806 3.0866 L7.294 3.4672 L6.0715 4.1206 z"/>
<path d="M5.3806 3.0866 L6.0715 4.1206 L5 5 z"/>
<path d="M5.3806 3.0866 L5 5 L4.1206 4.1206 z"/>
<path d="M5.3806 3.0866 L4.1206 4.1206 L3.4672 3.4672 z"/>
<path d="M5.3806 3.0866 L3.4672 3.4672 L4.8672 2.3182 z"/>
<path d="M5.3806 3.0866 L4.8672 2.3182 L6.4645 1.4645 z"/>
<path d="M5.3806 3.0866 L6.4645 1.4645 L6.8181 2.3182 z"/>
<path d="M1.8451 11.6221 L0.9387 11.8024 L0.7612 10 z"/>
<path d="M1.8451 11.6221 L0.7612 10 L1.6853 10 z"/>
<path d="M10 2.9289 L8.6205 3.0648 L8.3779 1.8451 z"/>
<path d="M10 2.9289 L8.3779 1.8451 L10 1.6853 z"/>
<path d="M10 2.9289 L10 1.6853 L11.6221 1.8451 z"/>
<path d="M10 2.9289 L11.6221 1.8451 L11.3795 3.0648 z"/>
<path d="M10 2.9289 L11.3795 3.0648 L11.0839 4.551 z"/>
<path d="M10 2.9289 L11.0839 4.551 L10 4.4443 z"/>
<path d="M10 2.9289 L10 4.4443 L8.9161 4.551 z"/>
<path d="M10 2.9289 L8.9161 4.551 L8.6205 3.0648 z"/>
<path d="M0.7612 13.8268 L0.9387 13.7533 L0.3806 11.9134 z"/>
<path d="M0.7612 13.8268 L0.3806 11.9134 L0.1921 11.9509 z"/>
<path d="M0.7612 13.8268 L0.1921 11.9509 L0.3806 11.9134 z"/>
<path d="M0.7612 13.8268 L0.3806 11.9134 L0.9387 13.7533 z"/>
<path d="M0.7612 13.8268 L0.9387 13.7533 L1.8451 15.449 z"/>
<path d="M0.7612 13.8268 L1.8451 15.449 L1.6853 15.5557 z"/>
<path d="M1.8451 15.449 L2.3182 15.1328 L1.4645 13.5355 z"/>
<path d="M1.8451 15.449 L1.4645 13.5355 L0.9387 13.7533 z"/>
<path d="M1.8451 15.449 L0.9387 13.7533 L0.7612 13.8268 z"/>
<path d="M1.8451 15.449 L0.7612 13.8268 L1.6853 15.5557 z"/>
<path d="M1.8451 15.449 L1.6853 15.5557 L2.9289 17.0711 z"/>
<path d="M1.8451 15.449 L2.9289 17.0711 L3.0648 16.9352 z"/>
<path d="M3.4672 16.5328 L4.8672 17.6818 L5.3806 16.9134 z"/>
<path d="M3.4672 16.5328 L5.3806 16.9134 L4.1206 15.8794 z"/>
<path d="M3.4672 16.5328 L4.1206 15.8794 L3.0866 14.6194 z"/>
<path d="M3.4672 16.5328 L3.0866 14.6194 L2.3182 15.1328 z"/>
<path d="M3.4672 16.5328 L2.3182 15.1328 L1.8451 15.449 z"/>
<path d="M3.4672 16.5328 L1.8451 15.449 L3.0648 16.9352 z"/>
<path d="M3.4672 16.5328 L3.0648 16.9352 L4.551 18.1549 z"/>
<path d="M3.4672 16.5328 L4.551 18.1549 L4.8672 17.6818 z"/>
<path d="M2.3182 6.8181 L3.4672 7.294 L4.1206 6.0715 z"/>
<path d="M2.3182 6.8181 L4.1206 6.0715 L3.0866 5.3806 z"/>
<path d="M2.3182 6.8181 L3.0866 5.3806 L2.3182 4.8672 z"/>
<path d="M2.3182 6.8181 L2.3182 4.8672 L1.4645 6.4645 z"/>
<path d="M3.4672 12.706 L2.3182 13.1819 L3.0866 14.6194 z"/>
<path d="M3.4672 12.706 L3.0866 14.6194 L4.1206 13.9285 z"/>
<path d="M3.4672 12.706 L4.1206 13.9285 L5.3806 13.0866 z"/>
<path d="M3.4672 12.706 L5.3806 13.0866 L4.8672 12.1261 z"/>
<path d="M0.1921 10 L0 10 L0.1921 11.9509 z"/>
<path d="M0.1921 10 L0.1921 11.9509 L0.3806 11.9134 z"/>
<path d="M0.9387 11.8024 L0.7612 10 L0.1921 10 z"/>
<path d="M0.9387 11.8024 L0.1921 10 L0.3806 11.9134 z"/>
<path d="M0.9387 11.8024 L0.3806 11.9134 L0.9387 13.7533 z"/>
<path d="M0.9387 11.8024 L0.9387 13.7533 L1.4645 13.5355 z"/>
<path d="M8.1976 9.2534 L8.0866 9.6194 L10 10 z"/>
<path d="M8.0491 10 L10 10 L8.0866 9.6194 z"/>
<path d="M5 5 L4.1206 4.1206 L3.0866 5.3806 z"/>
<path d="M5 5 L3.0866 5.3806 L4.1206 6.0715 z"/>
<path d="M5.3806 3.0866 L4.1206 4.1206 L5 5 z"/>
<path d="M5.3806 3.0866 L5 5 L6.0715 4.1206 z"/>
<path d="M5.3806 3.0866 L6.0715 4.1206 L7.294 3.4672 z"/>
<path d="M5.3806 3.0866 L7.294 3.4672 L6.8181 2.3182 z"/>
<path d="M5.3806 3.0866 L6.8181 2.3182 L6.4645 1.4645 z"/>
<path d="M5.3806 3.0866 L6.4645 1.4645 L4.8672 2.3182 z"/>
<path d="M5.3806 3.0866 L4.8672 2.3182 L3.4672 3.4672 z"/>
<path d="M5.3806 3.0866 L3.4672 3.4672 L4.1206 4.1206 z"/>
<path d="M11.0839 11.6221 L12.1261 13.1819 L12.706 12.706 z"/>
<path d="M11.0839 11.6221 L12.706 12.706 L11.3795 11.3795 z"/>
<path d="M11.0839 11.6221 L11.3795 11.3795 L10 10 z"/>
<path d="M10.7466 8.1976 L10.3806 8.0866 L10 10 z"/>
<path d="M9.6194 11.9134 L10 11.9509 L10 10 z"/>
<path d="M8.6205 11.3795 L8.9161 11.6221 L10 10 z"/>
<path d="M13.5355 18.5355 L13.1819 17.6818 L11.6221 18.1549 z"/>
<path d="M13.5355 18.5355 L11.6221 18.1549 L11.8024 19.0613 z"/>
<path d="M13.5355 18.5355 L11.8024 19.0613 L11.9134 19.6194 z"/>
<path d="M13.5355 18.5355 L11.9134 19.6194 L13.7533 19.0613 z"/>
<path d="M4.551 8.9161 L4.8672 7.8739 L3.4672 7.294 z"/>
<path d="M4.551 8.9161 L3.4672 7.294 L3.0648 8.6205 z"/>
<path d="M4.551 8.9161 L3.0648 8.6205 L2.9289 10 z"/>
<path d="M4.551 8.9161 L2.9289 10 L4.4443 10 z"/>
<path d="M6.9134 14.6194 L6.0715 15.8794 L7.294 16.5328 z"/>
<path d="M6.9134 14.6194 L7.294 16.5328 L7.8739 15.1328 z"/>
<path d="M6.9134 14.6194 L6.0715 13.9285 L5 15 z"/>
<path d="M6.9134 14.6194 L5 15 L6.0715 15.8794 z"/>
<path d="M12.706 16.5328 L13.9285 15.8794 L13.0866 14.6194 z"/>
<path d="M12.706 16.5328 L13.0866 14.6194 L12.1261 15.1328 z"/>
<path d="M12.706 16.5328 L11.3795 16.9352 L11.6221 18.1549 z"/>
<path d="M12.706 16.5328 L11.6221 18.1549 L13.1819 17.6818 z"/>
<path d="M12.706 16.5328 L13.1819 17.6818 L14.6194 16.9134 z"/>
<path d="M12.706 16.5328 L14.6194 16.9134 L13.9285 15.8794 z"/>
<path d="M14.6194 13.0866 L13.1819 12.1261 L13.5355 11.4645 z"/>
<path d="M14.6194 13.0866 L13.5355 11.4645 L15.1328 12.1261 z"/>
<path d="M14.6194 13.0866 L15.1328 12.1261 L16.5328 12.706 z"/>
<path d="M14.6194 13.0866 L16.5328 12.706 L15.8794 13.9285 z"/>
<path d="M14.6194 13.0866 L15.8794 13.9285 L15 15 z"/>
<path d="M14.6194 13.0866 L15 15 L13.9285 13.9285 z"/>
<path d="M8.1976 19.0613 L10 19.2388 L10 19.8079 z"/>
<path d="M8.1976 19.0613 L10 19.8079 L8.0866 19.6194 z"/>
<path d="M8.1976 19.0613 L8.0866 19.6194 L6.2467 19.0613 z"/>
<path d="M8.1976 19.0613 L6.2467 19.0613 L6.4645 18.5355 z"/>
<path d="M8.1976 19.0613 L6.4645 18.5355 L6.8181 17.6818 z"/>
<path d="M8.1976 19.0613 L6.8181 17.6818 L8.3779 18.1549 z"/>
<path d="M8.1976 19.0613 L8.3779 18.1549 L10 18.3147 z"/>
<path d="M8.1976 19.0613 L10 18.3147 L10 19.2388 z"/>
<path d="M8.9161 15.449 L10 15.5557 L10 17.0711 z"/>
<path d="M8.9161 15.449 L10 17.0711 L8.6205 16.9352 z"/>
<path d="M8.9161 15.449 L8.6205 16.9352 L7.294 16.5328 z"/>
<path d="M8.9161 15.449 L7.294 16.5328 L7.8739 15.1328 z"/>
<path d="M8.1976 19.0613 L6.4645 18.5355 L6.2467 19.0613 z"/>
<path d="M8.1976 19.0613 L6.2467 19.0613 L8.0866 19.6194 z"/>
<path d="M8.1976 19.0613 L8.0866 19.6194 L10 19.8079 z"/>
<path d="M8.1976 19.0613 L10 19.8079 L10 19.2388 z"/>
<path d="M11.6221 18.1549 L13.1819 17.6818 L13.5355 18.5355 z"/>
<path d="M11.6221 18.1549 L13.5355 18.5355 L11.8024 19.0613 z"/>
<path d="M11.6221 18.1549 L11.8024 19.0613 L10 19.2388 z"/>
<path d="M11.6221 18.1549 L10 19.2388 L10 18.3147 z"/>
<path d="M11.6221 18.1549 L10 18.3147 L10 17.0711 z"/>
<path d="M11.6221 18.1549 L10 17.0711 L11.3795 16.9352 z"/>
<path d="M11.6221 18.1549 L11.3795 16.9352 L12.706 16.5328 z"/>
<path d="M11.6221 18.1549 L12.706 16.5328 L13.1819 17.6818 z"/>
<path d="M16.5328 16.5328 L15.1328 17.6818 L14.6194 16.9134 z"/>
<path d="M16.5328 16.5328 L14.6194 16.9134 L15.8794 15.8794 z"/>
<path d="M11.0839 15.449 L12.1261 15.1328 L12.706 16.5328 z"/>
<path d="M11.0839 15.449 L12.706 16.5328 L11.3795 16.9352 z"/>
<path d="M11.0839 15.449 L11.3795 16.9352 L10 17.0711 z"/>
<path d="M11.0839 15.449 L10 17.0711 L10 15.5557 z"/>
<path d="M11.0839 15.449 L10 15.5557 L10 13.8268 z"/>
<path d="M11.0839 15.449 L10 13.8268 L10.7466 13.7533 z"/>
<path d="M11.0839 15.449 L10.7466 13.7533 L11.4645 13.5355 z"/>
<path d="M11.0839 15.449 L11.4645 13.5355 L12.1261 15.1328 z"/>
<path d="M11.9134 9.6194 L11.9509 10 L10 10 z"/>
<path d="M11.9134 9.6194 L10 10 L11.8024 9.2534 z"/>
<path d="M11.9134 9.6194 L11.8024 9.2534 L13.5355 8.5355 z"/>
<path d="M11.9134 9.6194 L13.5355 8.5355 L13.7533 9.2534 z"/>
<path d="M11.9134 9.6194 L13.7533 9.2534 L13.8268 10 z"/>
<path d="M11.9134 9.6194 L13.8268 10 L11.9509 10 z"/>
<path d="M11.9134 10.3806 L11.8024 10.7466 L10 10 z"/>
<path d="M11.9134 10.3806 L10 10 L11.9509 10 z"/>
<path d="M15.449 11.0839 L16.9352 11.3795 L16.5328 12.706 z"/>
<path d="M15.449 11.0839 L16.5328 12.706 L15.1328 12.1261 z"/>
<path d="M12.706 12.706 L13.1819 12.1261 L14.6194 13.0866 z"/>
<path d="M12.706 12.706 L14.6194 13.0866 L13.9285 13.9285 z"/>
<path d="M12.706 12.706 L13.9285 13.9285 L13.0866 14.6194 z"/>
<path d="M12.706 12.706 L13.0866 14.6194 L12.1261 13.1819 z"/>
<path d="M10.3806 11.9134 L10 10 L10.7466 11.8024 z"/>
<path d="M10.3806 11.9134 L10.7466 11.8024 L11.4645 13.5355 z"/>
<path d="M10.3806 11.9134 L11.4645 13.5355 L10.7466 13.7533 z"/>
<path d="M6.1732 10 L6.2467 10.7466 L4.551 11.0839 z"/>
<path d="M6.1732 10 L4.551 11.0839 L4.4443 10 z"/>
<path d="M6.0715 15.8794 L5 15 L6.0715 13.9285 z"/>
<path d="M6.0715 15.8794 L6.0715 13.9285 L6.9134 14.6194 z"/>
<path d="M6.0715 15.8794 L6.9134 14.6194 L7.8739 15.1328 z"/>
<path d="M6.0715 15.8794 L7.8739 15.1328 L7.294 16.5328 z"/>
<path d="M6.0715 15.8794 L7.294 16.5328 L6.8181 17.6818 z"/>
<path d="M6.0715 15.8794 L6.8181 17.6818 L5.3806 16.9134 z"/>
<path d="M6.0715 15.8794 L5.3806 16.9134 L4.1206 15.8794 z"/>
<path d="M6.0715 15.8794 L4.1206 15.8794 L5 15 z"/>
<path d="M17.0711 10 L16.9352 11.3795 L15.449 11.0839 z"/>
<path d="M17.0711 10 L15.449 11.0839 L15.5557 10 z"/>
<path d="M17.0711 10 L16.9352 8.6205 L18.1549 8.3779 z"/>
<path d="M17.0711 10 L18.1549 8.3779 L18.3147 10 z"/>
<path d="M18.1549 11.6221 L17.6818 13.1819 L16.5328 12.706 z"/>
<path d="M18.1549 11.6221 L16.5328 12.706 L16.9352 11.3795 z"/>
<path d="M18.1549 11.6221 L16.9352 11.3795 L17.0711 10 z"/>
<path d="M18.1549 11.6221 L17.0711 10 L18.3147 10 z"/>
<path d="M18.3147 15.5557 L19.2388 13.8268 L19.0613 13.7533 z"/>
<path d="M18.3147 15.5557 L19.0613 13.7533 L18.1549 15.449 z"/>
<path d="M18.3147 15.5557 L18.1549 15.449 L16.9352 16.9352 z"/>
<path d="M18.3147 15.5557 L16.9352 16.9352 L17.0711 17.0711 z"/>
<path d="M15.8794 13.9285 L16.5328 12.706 L15.1328 12.1261 z"/>
<path d="M15.8794 13.9285 L15.1328 12.1261 L14.6194 13.0866 z"/>
<path d="M15.8794 13.9285 L14.6194 13.0866 L13.9285 13.9285 z"/>
<path d="M15.8794 13.9285 L13.9285 13.9285 L15 15 z"/>
<path d="M15.8794 13.9285 L15 15 L15.8794 15.8794 z"/>
<path d="M15.8794 13.9285 L15.8794 15.8794 L16.9134 14.6194 z"/>
<path d="M15.8794 13.9285 L16.9134 14.6194 L17.6818 13.1819 z"/>
<path d="M15.8794 13.9285 L17.6818 13.1819 L16.5328 12.706 z"/>
<path d="M18.1549 11.6221 L16.9352 11.3795 L16.5328 12.706 z"/>
<path d="M18.1549 11.6221 L16.5328 12.706 L17.6818 13.1819 z"/>
<path d="M18.1549 11.6221 L17.6818 13.1819 L18.5355 13.5355 z"/>
<path d="M18.1549 11.6221 L18.5355 13.5355 L19.0613 11.8024 z"/>
<path d="M18.1549 11.6221 L19.0613 11.8024 L19.2388 10 z"/>
<path d="M18.1549 11.6221 L19.2388 10 L18.3147 10 z"/>
<path d="M19.0613 8.1976 L19.2388 10 L19.8079 10 z"/>
<path d="M19.0613 8.1976 L19.8079 10 L19.6194 8.0866 z"/>
<path d="M19.0613 8.1976 L19.6194 8.0866 L19.0613 6.2467 z"/>
<path d="M19.0613 8.1976 L19.0613 6.2467 L18.5355 6.4645 z"/>
<path d="M11.3795 3.0648 L11.6221 1.8451 L10 1.6853 z"/>
<path d="M11.3795 3.0648 L10 1.6853 L10 2.9289 z"/>
<path d="M6.9134 5.3806 L7.8739 6.8181 L7.294 7.294 z"/>
<path d="M6.9134 5.3806 L7.294 7.294 L6.0715 6.0715 z"/>
<path d="M6.9134 5.3806 L6.0715 6.0715 L5 5 z"/>
<path d="M6.9134 5.3806 L5 5 L6.0715 4.1206 z"/>
<path d="M6.9134 5.3806 L6.0715 4.1206 L7.294 3.4672 z"/>
<path d="M6.9134 5.3806 L7.294 3.4672 L7.8739 4.8672 z"/>
<path d="M6.9134 5.3806 L7.8739 4.8672 L8.5355 6.4645 z"/>
<path d="M6.9134 5.3806 L8.5355 6.4645 L7.8739 6.8181 z"/>
<path d="M4.8672 7.8739 L3.4672 7.294 L4.1206 6.0715 z"/>
<path d="M4.8672 7.8739 L4.1206 6.0715 L5.3806 6.9134 z"/>
<path d="M4.8672 7.8739 L5.3806 6.9134 L6.8181 7.8739 z"/>
<path d="M4.8672 7.8739 L6.8181 7.8739 L6.4645 8.5355 z"/>
<path d="M8.9161 8.3779 L7.8739 6.8181 L8.5355 6.4645 z"/>
<path d="M8.9161 8.3779 L8.5355 6.4645 L9.2534 8.1976 z"/>
<path d="M8.9161 8.3779 L9.2534 8.1976 L10 10 z"/>
<path d="M8.9161 8.3779 L10 10 L8.6205 8.6205 z"/>
<path d="M8.9161 8.3779 L8.6205 8.6205 L7.294 7.294 z"/>
<path d="M8.9161 8.3779 L7.294 7.294 L7.8739 6.8181 z"/>
<path d="M10 6.1732 L9.2534 6.2467 L8.9161 4.551 z"/>
<path d="M10 6.1732 L8.9161 4.551 L10 4.4443 z"/>
<path d="M10 6.1732 L10 4.4443 L11.0839 4.551 z"/>
<path d="M10 6.1732 L11.0839 4.551 L10.7466 6.2467 z"/>
<path d="M10.7466 8.1976 L10 10 L10.3806 8.0866 z"/>
<path d="M10.7466 8.1976 L10.3806 8.0866 L10.7466 6.2467 z"/>
<path d="M10.7466 8.1976 L10.7466 6.2467 L11.4645 6.4645 z"/>
<path d="M10.7466 8.1976 L11.4645 6.4645 L12.1261 6.8181 z"/>
<path d="M10.7466 8.1976 L12.1261 6.8181 L11.0839 8.3779 z"/>
<path d="M10.7466 8.1976 L11.0839 8.3779 L10 10 z"/>
<path d="M10 8.0491 L9.6194 8.0866 L9.2534 6.2467 z"/>
<path d="M10 8.0491 L9.2534 6.2467 L10 6.1732 z"/>
<path d="M10 8.0491 L10 6.1732 L10.7466 6.2467 z"/>
<path d="M10 8.0491 L10.7466 6.2467 L10.3806 8.0866 z"/>
<path d="M10 8.0491 L10.3806 8.0866 L10 10 z"/>
<path d="M10 8.0491 L10 10 L9.6194 8.0866 z"/>
<path d="M3.0648 11.3795 L4.551 11.0839 L4.8672 12.1261 z"/>
<path d="M3.0648 11.3795 L4.8672 12.1261 L3.4672 12.706 z"/>
<path d="M2.3182 13.1819 L3.0866 14.6194 L2.3182 15.1328 z"/>
<path d="M2.3182 13.1819 L2.3182 15.1328 L1.4645 13.5355 z"/>
<path d="M2.3182 13.1819 L1.4645 13.5355 L0.9387 11.8024 z"/>
<path d="M2.3182 13.1819 L0.9387 11.8024 L1.8451 11.6221 z"/>
<path d="M2.3182 13.1819 L1.8451 11.6221 L3.0648 11.3795 z"/>
<path d="M2.3182 13.1819 L3.0648 11.3795 L3.4672 12.706 z"/>
<path d="M2.3182 13.1819 L3.4672 12.706 L4.1206 13.9285 z"/>
<path d="M2.3182 13.1819 L4.1206 13.9285 L3.0866 14.6194 z"/>
<path d="M3.0648 11.3795 L3.4672 12.706 L4.8672 12.1261 z"/>
<path d="M3.0648 11.3795 L4.8672 12.1261 L4.551 11.0839 z"/>
<path d="M3.0648 11.3795 L4.551 11.0839 L4.4443 10 z"/>
<path d="M3.0648 11.3795 L4.4443 10 L2.9289 10 z"/>
<path d="M1.8451 11.6221 L1.6853 10 L0.7612 10 z"/>
<path d="M1.8451 11.6221 L0.7612 10 L0.9387 11.8024 z"/>
<path d="M1.8451 11.6221 L0.9387 11.8024 L1.4645 13.5355 z"/>
<path d="M1.8451 11.6221 L1.4645 13.5355 L2.3182 13.1819 z"/>
<path d="M1.8451 11.6221 L2.3182 13.1819 L3.4672 12.706 z"/>
<path d="M1.8451 11.6221 L3.4672 12.706 L3.0648 11.3795 z"/>
<path d="M1.8451 11.6221 L3.0648 11.3795 L2.9289 10 z"/>
<path d="M1.8451 11.6221 L2.9289 10 L1.6853 10 z"/>
<path d="M10 8.0491 L9.6194 8.0866 L10 10 z"/>
<path d="M10 8.0491 L10 10 L10.3806 8.0866 z"/>
<path d="M8.9161 8.3779 L8.6205 8.6205 L10 10 z"/>
<path d="M6.4645 8.5355 L4.8672 7.8739 L4.551 8.9161 z"/>
<path d="M6.4645 8.5355 L4.551 8.9161 L6.2467 9.2534 z"/>
<path d="M6.4645 8.5355 L6.2467 9.2534 L8.0866 9.6194 z"/>
<path d="M6.4645 8.5355 L8.0866 9.6194 L8.1976 9.2534 z"/>
<path d="M8.3779 8.9161 L6.8181 7.8739 L6.4645 8.5355 z"/>
<path d="M8.3779 8.9161 L6.4645 8.5355 L8.1976 9.2534 z"/>
<path d="M8.3779 8.9161 L8.1976 9.2534 L10 10 z"/>
<path d="M8.3779 8.9161 L10 10 L8.6205 8.6205 z"/>
<path d="M6.9134 5.3806 L6.0715 4.1206 L5 5 z"/>
<path d="M6.9134 5.3806 L5 5 L6.0715 6.0715 z"/>
<path d="M6.9134 5.3806 L7.8739 6.8181 L8.5355 6.4645 z"/>
<path d="M6.9134 5.3806 L8.5355 6.4645 L7.8739 4.8672 z"/>
<path d="M6.9134 5.3806 L7.8739 4.8672 L7.294 3.4672 z"/>
<path d="M6.9134 5.3806 L7.294 3.4672 L6.0715 4.1206 z"/>
<path d="M5.3806 6.9134 L4.8672 7.8739 L6.4645 8.5355 z"/>
<path d="M5.3806 6.9134 L6.4645 8.5355 L6.8181 7.8739 z"/>
<path d="M5.3806 6.9134 L6.0715 6.0715 L5 5 z"/>
<path d="M5.3806 6.9134 L5 5 L4.1206 6.0715 z"/>
<path d="M5.3806 6.9134 L4.1206 6.0715 L3.4672 7.294 z"/>
<path d="M5.3806 6.9134 L3.4672 7.294 L4.8672 7.8739 z"/>
<path d="M7.294 7.294 L7.8739 6.8181 L6.9134 5.3806 z"/>
<path d="M7.294 7.294 L6.9134 5.3806 L6.0715 6.0715 z"/>
<path d="M7.294 7.294 L6.0715 6.0715 L5.3806 6.9134 z"/>
<path d="M7.294 7.294 L5.3806 6.9134 L6.8181 7.8739 z"/>
<path d="M7.294 7.294 L6.8181 7.8739 L8.3779 8.9161 z"/>
<path d="M7.294 7.294 L8.3779 8.9161 L8.6205 8.6205 z"/>
<path d="M7.294 7.294 L8.6205 8.6205 L8.9161 8.3779 z"/>
<path d="M7.294 7.294 L8.9161 8.3779 L7.8739 6.8181 z"/>
<path d="M8.6205 3.0648 L10 2.9289 L10 1.6853 z"/>
<path d="M8.6205 3.0648 L10 1.6853 L8.3779 1.8451 z"/>
<path d="M8.6205 3.0648 L8.3779 1.8451 L6.8181 2.3182 z"/>
<path d="M8.6205 3.0648 L6.8181 2.3182 L7.294 3.4672 z"/>
<path d="M9.2534 11.8024 L9.6194 11.9134 L10 10 z"/>
<path d="M9.2534 11.8024 L10 10 L8.9161 11.6221 z"/>
<path d="M8.3779 11.0839 L6.8181 12.1261 L7.294 12.706 z"/>
<path d="M8.3779 11.0839 L7.294 12.706 L8.6205 11.3795 z"/>
<path d="M8.3779 11.0839 L8.6205 11.3795 L10 10 z"/>
<path d="M8.3779 11.0839 L10 10 L8.1976 10.7466 z"/>
<path d="M15.1328 17.6818 L16.5328 16.5328 L15.8794 15.8794 z"/>
<path d="M15.1328 17.6818 L15.8794 15.8794 L14.6194 16.9134 z"/>
<path d="M15.1328 17.6818 L14.6194 16.9134 L13.1819 17.6818 z"/>
<path d="M15.1328 17.6818 L13.1819 17.6818 L13.5355 18.5355 z"/>
<path d="M15.1328 17.6818 L13.5355 18.5355 L13.7533 19.0613 z"/>
<path d="M15.1328 17.6818 L13.7533 19.0613 L15.449 18.1549 z"/>
<path d="M15.1328 17.6818 L15.449 18.1549 L16.9352 16.9352 z"/>
<path d="M15.1328 17.6818 L16.9352 16.9352 L16.5328 16.5328 z"/>
<path d="M6.1732 10 L4.4443 10 L4.551 11.0839 z"/>
<path d="M6.1732 10 L4.551 11.0839 L6.2467 10.7466 z"/>
<path d="M6.1732 10 L8.0491 10 L8.0866 9.6194 z"/>
<path d="M6.1732 10 L8.0866 9.6194 L6.2467 9.2534 z"/>
<path d="M6.1732 10 L6.2467 9.2534 L4.551 8.9161 z"/>
<path d="M6.1732 10 L4.551 8.9161 L4.4443 10 z"/>
<path d="M8.0866 10.3806 L8.0491 10 L6.1732 10 z"/>
<path d="M8.0866 10.3806 L6.1732 10 L6.2467 10.7466 z"/>
<path d="M8.0866 10.3806 L8.1976 10.7466 L10 10 z"/>
<path d="M8.0866 10.3806 L10 10 L8.0491 10 z"/>
<path d="M6.4645 11.4645 L6.8181 12.1261 L8.3779 11.0839 z"/>
<path d="M6.4645 11.4645 L8.3779 11.0839 L8.1976 10.7466 z"/>
<path d="M6.4645 11.4645 L8.1976 10.7466 L8.0866 10.3806 z"/>
<path d="M6.4645 11.4645 L8.0866 10.3806 L6.2467 10.7466 z"/>
<path d="M6.4645 11.4645 L6.2467 10.7466 L4.551 11.0839 z"/>
<path d="M6.4645 11.4645 L4.551 11.0839 L4.8672 12.1261 z"/>
<path d="M6.4645 11.4645 L4.8672 12.1261 L5.3806 13.0866 z"/>
<path d="M6.4645 11.4645 L5.3806 13.0866 L6.8181 12.1261 z"/>
<path d="M7.8739 13.1819 L6.9134 14.6194 L7.8739 15.1328 z"/>
<path d="M7.8739 13.1819 L7.8739 15.1328 L8.5355 13.5355 z"/>
<path d="M7.8739 13.1819 L8.5355 13.5355 L9.2534 11.8024 z"/>
<path d="M7.8739 13.1819 L9.2534 11.8024 L8.9161 11.6221 z"/>
<path d="M7.8739 13.1819 L8.9161 11.6221 L8.6205 11.3795 z"/>
<path d="M7.8739 13.1819 L8.6205 11.3795 L7.294 12.706 z"/>
<path d="M7.8739 13.1819 L7.294 12.706 L6.0715 13.9285 z"/>
<path d="M7.8739 13.1819 L6.0715 13.9285 L6.9134 14.6194 z"/>
<path d="M9.2534 13.7533 L9.6194 11.9134 L9.2534 11.8024 z"/>
<path d="M9.2534 13.7533 L9.2534 11.8024 L8.5355 13.5355 z"/>
<path d="M9.2534 13.7533 L8.5355 13.5355 L7.8739 15.1328 z"/>
<path d="M9.2534 13.7533 L7.8739 15.1328 L8.9161 15.449 z"/>
<path d="M11.0839 15.449 L10 15.5557 L10 17.0711 z"/>
<path d="M11.0839 15.449 L10 17.0711 L11.3795 16.9352 z"/>
<path d="M11.0839 15.449 L11.3795 16.9352 L12.706 16.5328 z"/>
<path d="M11.0839 15.449 L12.706 16.5328 L12.1261 15.1328 z"/>
<path d="M10.3806 11.9134 L10 10 L10 11.9509 z"/>
<path d="M14.6194 6.9134 L13.9285 6.0715 L15 5 z"/>
<path d="M14.6194 6.9134 L15 5 L15.8794 6.0715 z"/>
<path d="M14.6194 6.9134 L15.8794 6.0715 L16.5328 7.294 z"/>
<path d="M14.6194 6.9134 L16.5328 7.294 L15.1328 7.8739 z"/>
<path d="M14.6194 6.9134 L15.1328 7.8739 L13.5355 8.5355 z"/>
<path d="M14.6194 6.9134 L13.5355 8.5355 L13.1819 7.8739 z"/>
<path d="M14.6194 6.9134 L13.1819 7.8739 L12.706 7.294 z"/>
<path d="M14.6194 6.9134 L12.706 7.294 L13.9285 6.0715 z"/>
<path d="M15.449 8.9161 L15.5557 10 L13.8268 10 z"/>
<path d="M15.449 8.9161 L13.8268 10 L13.7533 9.2534 z"/>
<path d="M15.449 8.9161 L13.7533 9.2534 L13.5355 8.5355 z"/>
<path d="M15.449 8.9161 L13.5355 8.5355 L15.1328 7.8739 z"/>
<path d="M15.449 8.9161 L15.1328 7.8739 L16.5328 7.294 z"/>
<path d="M15.449 8.9161 L16.5328 7.294 L16.9352 8.6205 z"/>
<path d="M15.449 8.9161 L16.9352 8.6205 L17.0711 10 z"/>
<path d="M15.449 8.9161 L17.0711 10 L15.5557 10 z"/>
<path d="M8.3779 18.1549 L6.8181 17.6818 L6.4645 18.5355 z"/>
<path d="M8.3779 18.1549 L6.4645 18.5355 L8.1976 19.0613 z"/>
<path d="M8.3779 18.1549 L8.1976 19.0613 L10 19.2388 z"/>
<path d="M8.3779 18.1549 L10 19.2388 L10 18.3147 z"/>
<path d="M8.3779 18.1549 L10 18.3147 L10 17.0711 z"/>
<path d="M8.3779 18.1549 L10 17.0711 L8.6205 16.9352 z"/>
<path d="M8.3779 18.1549 L8.6205 16.9352 L7.294 16.5328 z"/>
<path d="M8.3779 18.1549 L7.294 16.5328 L6.8181 17.6818 z"/>
<path d="M16.9352 16.9352 L18.1549 15.449 L18.3147 15.5557 z"/>
<path d="M16.9352 16.9352 L18.3147 15.5557 L17.0711 17.0711 z"/>
<path d="M9.2534 13.7533 L10 13.8268 L10 15.5557 z"/>
<path d="M9.2534 13.7533 L10 15.5557 L8.9161 15.449 z"/>
<path d="M9.2534 13.7533 L8.9161 15.449 L7.8739 15.1328 z"/>
<path d="M9.2534 13.7533 L7.8739 15.1328 L8.5355 13.5355 z"/>
<path d="M13.7533 10.7466 L13.5355 11.4645 L11.8024 10.7466 z"/>
<path d="M13.7533 10.7466 L11.8024 10.7466 L11.9134 10.3806 z"/>
<path d="M13.7533 10.7466 L11.9134 10.3806 L11.9509 10 z"/>
<path d="M13.7533 10.7466 L11.9509 10 L13.8268 10 z"/>
<path d="M13.7533 10.7466 L13.8268 10 L15.5557 10 z"/>
<path d="M13.7533 10.7466 L15.5557 10 L15.449 11.0839 z"/>
<path d="M13.7533 10.7466 L15.449 11.0839 L15.1328 12.1261 z"/>
<path d="M13.7533 10.7466 L15.1328 12.1261 L13.5355 11.4645 z"/>
<path d="M11.3795 11.3795 L11.6221 11.0839 L13.1819 12.1261 z"/>
<path d="M11.3795 11.3795 L13.1819 12.1261 L12.706 12.706 z"/>
<path d="M11.3795 11.3795 L10 10 L11.6221 11.0839 z"/>
<path d="M10 11.9509 L10 10 L10.3806 11.9134 z"/>
<path d="M10 11.9509 L10.3806 11.9134 L10.7466 13.7533 z"/>
<path d="M10 11.9509 L10.7466 13.7533 L10 13.8268 z"/>
<path d="M10 11.9509 L10 13.8268 L9.2534 13.7533 z"/>
<path d="M10 11.9509 L9.2534 13.7533 L9.6194 11.9134 z"/>
<path d="M10 11.9509 L9.6194 11.9134 L10 10 z"/>
<path d="M9.2534 11.8024 L10 10 L9.6194 11.9134 z"/>
<path d="M9.2534 11.8024 L9.6194 11.9134 L9.2534 13.7533 z"/>
<path d="M9.2534 11.8024 L9.2534 13.7533 L8.5355 13.5355 z"/>
<path d="M8.3779 11.0839 L10 10 L8.6205 11.3795 z"/>
<path d="M8.3779 11.0839 L8.6205 11.3795 L7.294 12.706 z"/>
<path d="M8.3779 11.0839 L7.294 12.706 L6.8181 12.1261 z"/>
<path d="M8.0866 9.6194 L8.0491 10 L6.1732 10 z"/>
<path d="M8.0866 9.6194 L6.1732 10 L6.2467 9.2534 z"/>
<path d="M8.0866 9.6194 L6.2467 9.2534 L6.4645 8.5355 z"/>
<path d="M8.0866 9.6194 L6.4645 8.5355 L8.1976 9.2534 z"/>
<path d="M8.0866 9.6194 L8.1976 9.2534 L10 10 z"/>
<path d="M8.0866 9.6194 L10 10 L8.0491 10 z"/>
<path d="M8.3779 8.9161 L8.6205 8.6205 L10 10 z"/>
<path d="M8.3779 8.9161 L10 10 L8.1976 9.2534 z"/>
<path d="M8.3779 8.9161 L8.1976 9.2534 L6.4645 8.5355 z"/>
<path d="M8.3779 8.9161 L6.4645 8.5355 L6.8181 7.8739 z"/>
<path d="M8.3779 8.9161 L6.8181 7.8739 L7.294 7.294 z"/>
<path d="M8.3779 8.9161 L7.294 7.294 L8.6205 8.6205 z"/>
<path d="M17.6818 15.1328 L16.5328 16.5328 L15.8794 15.8794 z"/>
<path d="M17.6818 15.1328 L15.8794 15.8794 L16.9134 14.6194 z"/>
<path d="M17.6818 15.1328 L16.9134 14.6194 L17.6818 13.1819 z"/>
<path d="M17.6818 15.1328 L17.6818 13.1819 L18.5355 13.5355 z"/>
<path d="M17.6818 15.1328 L18.1549 15.449 L16.9352 16.9352 z"/>
<path d="M17.6818 15.1328 L16.9352 16.9352 L16.5328 16.5328 z"/>
<path d="M19.0613 13.7533 L18.1549 15.449 L17.6818 15.1328 z"/>
<path d="M19.0613 13.7533 L17.6818 15.1328 L18.5355 13.5355 z"/>
<path d="M19.0613 13.7533 L19.6194 11.9134 L19.8079 11.9509 z"/>
<path d="M19.0613 13.7533 L19.8079 11.9509 L19.2388 13.8268 z"/>
<path d="M19.0613 13.7533 L19.2388 13.8268 L18.3147 15.5557 z"/>
<path d="M19.0613 13.7533 L18.3147 15.5557 L18.1549 15.449 z"/>
<path d="M19.0613 11.8024 L19.2388 10 L19.8079 10 z"/>
<path d="M19.0613 11.8024 L19.8079 10 L19.6194 11.9134 z"/>
<path d="M19.0613 11.8024 L19.6194 11.9134 L19.0613 13.7533 z"/>
<path d="M19.0613 11.8024 L19.0613 13.7533 L18.5355 13.5355 z"/>
<path d="M19.0613 11.8024 L18.5355 13.5355 L17.6818 13.1819 z"/>
<path d="M19.0613 11.8024 L17.6818 13.1819 L18.1549 11.6221 z"/>
<path d="M19.0613 11.8024 L18.1549 11.6221 L18.3147 10 z"/>
<path d="M19.0613 11.8024 L18.3147 10 L19.2388 10 z"/>
<path d="M15.8794 4.1206 L16.9134 5.3806 L17.6818 4.8672 z"/>
<path d="M15.8794 4.1206 L17.6818 4.8672 L16.5328 3.4672 z"/>
<path d="M4.551 8.9161 L3.0648 8.6205 L3.4672 7.294 z"/>
<path d="M4.551 8.9161 L3.4672 7.294 L4.8672 7.8739 z"/>
<path d="M4.551 8.9161 L4.8672 7.8739 L6.4645 8.5355 z"/>
<path d="M4.551 8.9161 L6.4645 8.5355 L6.2467 9.2534 z"/>
<path d="M4.551 8.9161 L6.2467 9.2534 L6.1732 10 z"/>
<path d="M4.551 8.9161 L6.1732 10 L4.4443 10 z"/>
<path d="M2.9289 10 L3.0648 8.6205 L4.551 8.9161 z"/>
<path d="M2.9289 10 L4.551 8.9161 L4.4443 10 z"/>
<path d="M2.9289 10 L4.4443 10 L4.551 11.0839 z"/>
<path d="M2.9289 10 L4.551 11.0839 L3.0648 11.3795 z"/>
<path d="M2.9289 10 L3.0648 11.3795 L1.8451 11.6221 z"/>
<path d="M2.9289 10 L1.8451 11.6221 L1.6853 10 z"/>
<path d="M2.9289 10 L1.6853 10 L1.8451 8.3779 z"/>
<path d="M2.9289 10 L1.8451 8.3779 L3.0648 8.6205 z"/>
<path d="M1.8451 8.3779 L2.3182 6.8181 L1.4645 6.4645 z"/>
<path d="M1.8451 8.3779 L1.4645 6.4645 L0.9387 8.1976 z"/>
<path d="M1.8451 8.3779 L0.9387 8.1976 L0.7612 10 z"/>
<path d="M1.8451 8.3779 L0.7612 10 L1.6853 10 z"/>
<path d="M1.8451 8.3779 L1.6853 10 L2.9289 10 z"/>
<path d="M1.8451 8.3779 L2.9289 10 L3.0648 8.6205 z"/>
<path d="M1.8451 8.3779 L3.0648 8.6205 L3.4672 7.294 z"/>
<path d="M1.8451 8.3779 L3.4672 7.294 L2.3182 6.8181 z"/>
<path d="M0.3806 8.0866 L0.1921 10 L0.7612 10 z"/>
<path d="M0.3806 8.0866 L0.7612 10 L0.9387 8.1976 z"/>
<path d="M0.3806 8.0866 L0.9387 8.1976 L1.4645 6.4645 z"/>
<path d="M0.3806 8.0866 L1.4645 6.4645 L0.9387 6.2467 z"/>
<path d="M0.3806 8.0866 L0.9387 6.2467 L0.7612 6.1732 z"/>
<path d="M0.3806 8.0866 L0.7612 6.1732 L0.1921 8.0491 z"/>
<path d="M0.3806 8.0866 L0.1921 8.0491 L0 10 z"/>
<path d="M0.3806 8.0866 L0 10 L0.1921 10 z"/>
<path d="M10 6.1732 L9.2534 6.2467 L9.6194 8.0866 z"/>
<path d="M10 6.1732 L9.6194 8.0866 L10 8.0491 z"/>
<path d="M9.2534 8.1976 L9.6194 8.0866 L9.2534 6.2467 z"/>
<path d="M9.2534 8.1976 L9.2534 6.2467 L8.5355 6.4645 z"/>
<path d="M9.2534 8.1976 L8.5355 6.4645 L7.8739 6.8181 z"/>
<path d="M9.2534 8.1976 L7.8739 6.8181 L8.9161 8.3779 z"/>
<path d="M9.2534 8.1976 L8.9161 8.3779 L10 10 z"/>
<path d="M9.2534 8.1976 L10 10 L9.6194 8.0866 z"/>
<path d="M11.0839 4.551 L12.1261 4.8672 L12.706 3.4672 z"/>
<path d="M11.0839 4.551 L12.706 3.4672 L11.3795 3.0648 z"/>
<path d="M11.0839 4.551 L11.3795 3.0648 L10 2.9289 z"/>
<path d="M11.0839 4.551 L10 2.9289 L10 4.4443 z"/>
<path d="M8.9161 4.551 L10 4.4443 L10 2.9289 z"/>
<path d="M8.9161 4.551 L10 2.9289 L8.6205 3.0648 z"/>
<path d="M8.9161 4.551 L8.6205 3.0648 L7.294 3.4672 z"/>
<path d="M8.9161 4.551 L7.294 3.4672 L7.8739 4.8672 z"/>
<path d="M8.9161 4.551 L7.8739 4.8672 L8.5355 6.4645 z"/>
<path d="M8.9161 4.551 L8.5355 6.4645 L9.2534 6.2467 z"/>
<path d="M8.9161 4.551 L9.2534 6.2467 L10 6.1732 z"/>
<path d="M8.9161 4.551 L10 6.1732 L10 4.4443 z"/>
<path d="M10 13.8268 L10.7466 13.7533 L10.3806 11.9134 z"/>
<path d="M10 13.8268 L10.3806 11.9134 L10 11.9509 z"/>
<path d="M10 13.8268 L10 11.9509 L9.6194 11.9134 z"/>
<path d="M10 13.8268 L9.6194 11.9134 L9.2534 13.7533 z"/>
<path d="M10 13.8268 L9.2534 13.7533 L8.9161 15.449 z"/>
<path d="M10 13.8268 L8.9161 15.449 L10 15.5557 z"/>
<path d="M10 13.8268 L10 15.5557 L11.0839 15.449 z"/>
<path d="M10 13.8268 L11.0839 15.449 L10.7466 13.7533 z"/>
<path d="M11.4645 13.5355 L10.7466 13.7533 L11.0839 15.449 z"/>
<path d="M11.4645 13.5355 L11.0839 15.449 L12.1261 15.1328 z"/>
<path d="M11.4645 13.5355 L12.1261 15.1328 L13.0866 14.6194 z"/>
<path d="M11.4645 13.5355 L13.0866 14.6194 L12.1261 13.1819 z"/>
<path d="M15.449 18.1549 L13.7533 19.0613 L13.5355 18.5355 z"/>
<path d="M15.449 18.1549 L13.5355 18.5355 L15.1328 17.6818 z"/>
<path d="M15.449 18.1549 L15.1328 17.6818 L16.5328 16.5328 z"/>
<path d="M15.449 18.1549 L16.5328 16.5328 L16.9352 16.9352 z"/>
<path d="M15.449 18.1549 L16.9352 16.9352 L17.0711 17.0711 z"/>
<path d="M15.449 18.1549 L17.0711 17.0711 L15.5557 18.3147 z"/>
<path d="M15.449 18.1549 L15.5557 18.3147 L13.8268 19.2388 z"/>
<path d="M15.449 18.1549 L13.8268 19.2388 L13.7533 19.0613 z"/>
<path d="M11.0839 11.6221 L10.7466 11.8024 L10 10 z"/>
<path d="M11.0839 11.6221 L10 10 L11.3795 11.3795 z"/>
<path d="M11.0839 11.6221 L11.3795 11.3795 L12.706 12.706 z"/>
<path d="M11.0839 11.6221 L12.706 12.706 L12.1261 13.1819 z"/>
<path d="M11.0839 11.6221 L12.1261 13.1819 L11.4645 13.5355 z"/>
<path d="M11.0839 11.6221 L11.4645 13.5355 L10.7466 11.8024 z"/>
<path d="M7.8739 13.1819 L8.5355 13.5355 L7.8739 15.1328 z"/>
<path d="M7.8739 13.1819 L7.8739 15.1328 L6.9134 14.6194 z"/>
<path d="M7.8739 13.1819 L6.9134 14.6194 L6.0715 13.9285 z"/>
<path d="M7.8739 13.1819 L6.0715 13.9285 L7.294 12.706 z"/>
<path d="M8.0866 10.3806 L8.0491 10 L10 10 z"/>
<path d="M8.0866 10.3806 L6.2467 10.7466 L6.1732 10 z"/>
<path d="M8.0866 10.3806 L6.1732 10 L8.0491 10 z"/>
<path d="M18.1549 8.3779 L18.3147 10 L19.2388 10 z"/>
<path d="M18.1549 8.3779 L19.2388 10 L19.0613 8.1976 z"/>
<path d="M18.1549 8.3779 L19.0613 8.1976 L18.5355 6.4645 z"/>
<path d="M18.1549 8.3779 L18.5355 6.4645 L17.6818 6.8181 z"/>
<path d="M15.1328 2.3182 L16.5328 3.4672 L16.9352 3.0648 z"/>
<path d="M15.1328 2.3182 L16.9352 3.0648 L15.449 1.8451 z"/>
<path d="M15.1328 2.3182 L15.449 1.8451 L13.7533 0.9387 z"/>
<path d="M15.1328 2.3182 L13.7533 0.9387 L13.5355 1.4645 z"/>
<path d="M10.7466 6.2467 L11.4645 6.4645 L12.1261 4.8672 z"/>
<path d="M10.7466 6.2467 L12.1261 4.8672 L11.0839 4.551 z"/>
<path d="M10.7466 6.2467 L11.0839 4.551 L10 4.4443 z"/>
<path d="M10.7466 6.2467 L10 4.4443 L10 6.1732 z"/>
<path d="M10.7466 6.2467 L10 6.1732 L10 8.0491 z"/>
<path d="M10.7466 6.2467 L10 8.0491 L10.3806 8.0866 z"/>
<path d="M10.7466 6.2467 L10.3806 8.0866 L10.7466 8.1976 z"/>
<path d="M10.7466 6.2467 L10.7466 8.1976 L11.4645 6.4645 z"/>
<path d="M10.7466 11.8024 L10.3806 11.9134 L10.7466 13.7533 z"/>
<path d="M10.7466 11.8024 L10.7466 13.7533 L11.4645 13.5355 z"/>
<path d="M10.7466 11.8024 L11.4645 13.5355 L12.1261 13.1819 z"/>
<path d="M10.7466 11.8024 L12.1261 13.1819 L11.0839 11.6221 z"/>
<path d="M10.7466 11.8024 L11.0839 11.6221 L10 10 z"/>
<path d="M10.7466 11.8024 L10 10 L10.3806 11.9134 z"/>
<path d="M8.9161 11.6221 L9.2534 11.8024 L8.5355 13.5355 z"/>
<path d="M8.9161 11.6221 L8.5355 13.5355 L7.8739 13.1819 z"/>
<path d="M8.9161 11.6221 L7.8739 13.1819 L7.294 12.706 z"/>
<path d="M8.9161 11.6221 L7.294 12.706 L8.6205 11.3795 z"/>
<path d="M8.9161 11.6221 L8.6205 11.3795 L10 10 z"/>
<path d="M8.9161 11.6221 L10 10 L9.2534 11.8024 z"/>
<path d="M8.1976 10.7466 L8.3779 11.0839 L6.8181 12.1261 z"/>
<path d="M8.1976 10.7466 L6.8181 12.1261 L6.4645 11.4645 z"/>
<path d="M8.1976 10.7466 L6.4645 11.4645 L6.2467 10.7466 z"/>
<path d="M8.1976 10.7466 L6.2467 10.7466 L8.0866 10.3806 z"/>
<path d="M8.1976 10.7466 L8.0866 10.3806 L10 10 z"/>
<path d="M8.1976 10.7466 L10 10 L8.3779 11.0839 z"/>
<path d="M12.1261 6.8181 L12.706 7.294 L13.9285 6.0715 z"/>
<path d="M12.1261 6.8181 L13.9285 6.0715 L13.0866 5.3806 z"/>
<path d="M12.1261 6.8181 L13.0866 5.3806 L12.1261 4.8672 z"/>
<path d="M12.1261 6.8181 L12.1261 4.8672 L11.4645 6.4645 z"/>
<path d="M16.5328 7.294 L15.1328 7.8739 L15.449 8.9161 z"/>
<path d="M16.5328 7.294 L15.449 8.9161 L16.9352 8.6205 z"/>
<path d="M16.5328 7.294 L16.9352 8.6205 L18.1549 8.3779 z"/>
<path d="M16.5328 7.294 L18.1549 8.3779 L17.6818 6.8181 z"/>
<path d="M17.0711 10 L16.9352 8.6205 L15.449 8.9161 z"/>
<path d="M17.0711 10 L15.449 8.9161 L15.5557 10 z"/>
<path d="M17.0711 10 L16.9352 11.3795 L18.1549 11.6221 z"/>
<path d="M17.0711 10 L18.1549 11.6221 L18.3147 10 z"/>
<path d="M17.0711 10 L18.3147 10 L18.1549 8.3779 z"/>
<path d="M17.0711 10 L18.1549 8.3779 L16.9352 8.6205 z"/>
<path d="M14.6194 3.0866 L15.8794 4.1206 L16.5328 3.4672 z"/>
<path d="M14.6194 3.0866 L16.5328 3.4672 L15.1328 2.3182 z"/>
<path d="M13.1819 12.1261 L14.6194 13.0866 L15.1328 12.1261 z"/>
<path d="M13.1819 12.1261 L15.1328 12.1261 L13.5355 11.4645 z"/>
<path d="M13.1819 12.1261 L12.706 12.706 L13.9285 13.9285 z"/>
<path d="M13.1819 12.1261 L13.9285 13.9285 L14.6194 13.0866 z"/>
<path d="M14.6194 6.9134 L13.9285 6.0715 L12.706 7.294 z"/>
<path d="M14.6194 6.9134 L12.706 7.294 L13.1819 7.8739 z"/>
<path d="M14.6194 6.9134 L13.1819 7.8739 L13.5355 8.5355 z"/>
<path d="M14.6194 6.9134 L13.5355 8.5355 L15.1328 7.8739 z"/>
<path d="M13.1819 2.3182 L11.6221 1.8451 L11.3795 3.0648 z"/>
<path d="M13.1819 2.3182 L11.3795 3.0648 L12.706 3.4672 z"/>
<path d="M13.1819 2.3182 L14.6194 3.0866 L15.1328 2.3182 z"/>
<path d="M13.1819 2.3182 L15.1328 2.3182 L13.5355 1.4645 z"/>
<path d="M13.1819 2.3182 L13.5355 1.4645 L11.8024 0.9387 z"/>
<path d="M13.1819 2.3182 L11.8024 0.9387 L11.6221 1.8451 z"/>
<path d="M13.9285 4.1206 L15 5 L15.8794 4.1206 z"/>
<path d="M13.9285 4.1206 L15.8794 4.1206 L14.6194 3.0866 z"/>
<path d="M13.9285 4.1206 L14.6194 3.0866 L13.1819 2.3182 z"/>
<path d="M13.9285 4.1206 L13.1819 2.3182 L12.706 3.4672 z"/>
<path d="M13.9285 4.1206 L12.706 3.4672 L12.1261 4.8672 z"/>
<path d="M13.9285 4.1206 L12.1261 4.8672 L13.0866 5.3806 z"/>
<path d="M13.9285 4.1206 L13.0866 5.3806 L13.9285 6.0715 z"/>
<path d="M13.9285 4.1206 L13.9285 6.0715 L15 5 z"/>
<path d="M15.449 11.0839 L15.1328 12.1261 L16.5328 12.706 z"/>
<path d="M15.449 11.0839 L16.5328 12.706 L16.9352 11.3795 z"/>
<path d="M15.449 11.0839 L16.9352 11.3795 L17.0711 10 z"/>
<path d="M15.449 11.0839 L17.0711 10 L15.5557 10 z"/>
<path d="M13.7533 9.2534 L13.8268 10 L15.5557 10 z"/>
<path d="M13.7533 9.2534 L15.5557 10 L15.449 8.9161 z"/>
<path d="M13.7533 9.2534 L15.449 8.9161 L15.1328 7.8739 z"/>
<path d="M13.7533 9.2534 L15.1328 7.8739 L13.5355 8.5355 z"/>
<path d="M11.6221 11.0839 L10 10 L11.3795 11.3795 z"/>
<path d="M11.6221 11.0839 L11.3795 11.3795 L12.706 12.706 z"/>
<path d="M11.6221 11.0839 L12.706 12.706 L13.1819 12.1261 z"/>
<path d="M11.9509 10 L11.9134 9.6194 L10 10 z"/>
<path d="M11.9509 10 L10 10 L11.9134 10.3806 z"/>
<path d="M11.9509 10 L13.8268 10 L13.7533 9.2534 z"/>
<path d="M11.9509 10 L13.7533 9.2534 L11.9134 9.6194 z"/>
<path d="M11.8024 9.2534 L10 10 L11.9134 9.6194 z"/>
<path d="M11.8024 9.2534 L11.9134 9.6194 L13.7533 9.2534 z"/>
<path d="M11.8024 9.2534 L13.7533 9.2534 L13.5355 8.5355 z"/>
<path d="M11.0839 8.3779 L10.7466 8.1976 L10 10 z"/>
<path d="M11.0839 8.3779 L10 10 L11.3795 8.6205 z"/>
<path d="M11.0839 8.3779 L11.3795 8.6205 L12.706 7.294 z"/>
<path d="M11.0839 8.3779 L12.706 7.294 L12.1261 6.8181 z"/>
<path d="M11.0839 8.3779 L12.1261 6.8181 L11.4645 6.4645 z"/>
<path d="M11.0839 8.3779 L11.4645 6.4645 L10.7466 8.1976 z"/>
<path d="M15.8794 6.0715 L15 5 L13.9285 6.0715 z"/>
<path d="M15.8794 6.0715 L13.9285 6.0715 L14.6194 6.9134 z"/>
<path d="M15.8794 6.0715 L14.6194 6.9134 L15.1328 7.8739 z"/>
<path d="M15.8794 6.0715 L15.1328 7.8739 L16.5328 7.294 z"/>
<path d="M15.8794 6.0715 L16.5328 7.294 L17.6818 6.8181 z"/>
<path d="M15.8794 6.0715 L17.6818 6.8181 L16.9134 5.3806 z"/>
<path d="M15.8794 6.0715 L16.9134 5.3806 L15.8794 4.1206 z"/>
<path d="M15.8794 6.0715 L15.8794 4.1206 L15 5 z"/>
<path d="M13.7533 10.7466 L13.5355 11.4645 L15.1328 12.1261 z"/>
<path d="M13.7533 10.7466 L15.1328 12.1261 L15.449 11.0839 z"/>
<path d="M13.7533 10.7466 L15.449 11.0839 L15.5557 10 z"/>
<path d="M13.7533 10.7466 L15.5557 10 L13.8268 10 z"/>
<path d="M13.7533 10.7466 L13.8268 10 L11.9509 10 z"/>
<path d="M13.7533 10.7466 L11.9509 10 L11.9134 10.3806 z"/>
<path d="M11.8024 10.7466 L11.9134 10.3806 L10 10 z"/>
<path d="M11.8024 10.7466 L10 10 L11.6221 11.0839 z"/>
<path d="M11.8024 10.7466 L11.6221 11.0839 L13.1819 12.1261 z"/>
<path d="M11.8024 10.7466 L13.1819 12.1261 L13.5355 11.4645 z"/>
<path d="M11.8024 10.7466 L13.5355 11.4645 L13.7533 10.7466 z"/>
<path d="M11.8024 10.7466 L13.7533 10.7466 L11.9134 10.3806 z"/>
<path d="M11.6221 8.9161 L11.3795 8.6205 L10 10 z"/>
<path d="M11.6221 8.9161 L10 10 L11.8024 9.2534 z"/>
<path d="M11.6221 8.9161 L11.8024 9.2534 L13.5355 8.5355 z"/>
<path d="M11.6221 8.9161 L13.5355 8.5355 L13.1819 7.8739 z"/>
<path d="M11.6221 8.9161 L13.1819 7.8739 L12.706 7.294 z"/>
<path d="M11.6221 8.9161 L12.706 7.294 L11.3795 8.6205 z"/>
</svg>